<svg width="328" height="40" viewBox="0 0 328 40" fill="none" xmlns="http://www.w3.org/2000/svg">
<rect width="328" height="40" rx="20" fill="url(#paint0_linear_38_3123)"/>
<path d="M121.632 25.5C121.525 25.5 121.435 25.468 121.36 25.404C121.285 25.3293 121.248 25.2333 121.248 25.116V14.7C121.248 14.5827 121.285 14.4867 121.36 14.412C121.435 14.3373 121.525 14.3 121.632 14.3H130.016C130.133 14.3 130.229 14.3373 130.304 14.412C130.379 14.4867 130.416 14.5827 130.416 14.7V25.116C130.416 25.2227 130.379 25.3133 130.304 25.388C130.229 25.4627 130.133 25.5 130.016 25.5H128.576C128.469 25.5 128.379 25.4627 128.304 25.388C128.229 25.3133 128.192 25.2227 128.192 25.116V16.3H123.472V25.116C123.472 25.2227 123.435 25.3133 123.36 25.388C123.296 25.4627 123.205 25.5 123.088 25.5H121.632ZM132.952 28.54C132.846 28.54 132.755 28.5027 132.68 28.428C132.606 28.3533 132.568 28.2627 132.568 28.156V17.564C132.568 17.4573 132.606 17.3667 132.68 17.292C132.755 17.2173 132.846 17.18 132.952 17.18H134.216C134.334 17.18 134.424 17.2173 134.488 17.292C134.563 17.3667 134.6 17.4573 134.6 17.564V18.204C134.856 17.8627 135.192 17.58 135.608 17.356C136.024 17.132 136.542 17.02 137.16 17.02C137.726 17.02 138.216 17.1107 138.632 17.292C139.048 17.4733 139.395 17.7347 139.672 18.076C139.95 18.4067 140.163 18.8013 140.312 19.26C140.462 19.7187 140.547 20.2253 140.568 20.78C140.579 20.9613 140.584 21.148 140.584 21.34C140.584 21.532 140.579 21.724 140.568 21.916C140.558 22.4493 140.478 22.9453 140.328 23.404C140.179 23.852 139.96 24.2467 139.672 24.588C139.395 24.9187 139.048 25.18 138.632 25.372C138.216 25.564 137.726 25.66 137.16 25.66C136.584 25.66 136.094 25.5587 135.688 25.356C135.283 25.1427 134.952 24.8653 134.696 24.524V28.156C134.696 28.2627 134.659 28.3533 134.584 28.428C134.52 28.5027 134.43 28.54 134.312 28.54H132.952ZM136.568 23.948C137.027 23.948 137.384 23.852 137.64 23.66C137.896 23.4573 138.078 23.196 138.184 22.876C138.302 22.556 138.371 22.204 138.392 21.82C138.414 21.5 138.414 21.18 138.392 20.86C138.371 20.476 138.302 20.124 138.184 19.804C138.078 19.484 137.896 19.228 137.64 19.036C137.384 18.8333 137.027 18.732 136.568 18.732C136.131 18.732 135.774 18.8333 135.496 19.036C135.23 19.2387 135.032 19.5 134.904 19.82C134.787 20.1293 134.718 20.4493 134.696 20.78C134.686 20.972 134.68 21.1747 134.68 21.388C134.68 21.6013 134.686 21.8093 134.696 22.012C134.707 22.332 134.782 22.6413 134.92 22.94C135.059 23.228 135.262 23.468 135.528 23.66C135.795 23.852 136.142 23.948 136.568 23.948ZM142.588 25.5C142.492 25.5 142.407 25.4627 142.332 25.388C142.258 25.3133 142.22 25.228 142.22 25.132V17.564C142.22 17.4573 142.258 17.3667 142.332 17.292C142.407 17.2173 142.498 17.18 142.604 17.18H143.932C144.05 17.18 144.14 17.2173 144.204 17.292C144.279 17.3667 144.316 17.4573 144.316 17.564V23.884L143.756 23.484L148.156 17.436C148.21 17.3613 148.268 17.3027 148.332 17.26C148.396 17.2067 148.482 17.18 148.588 17.18H149.804C149.9 17.18 149.986 17.2173 150.06 17.292C150.135 17.356 150.172 17.436 150.172 17.532V25.116C150.172 25.2227 150.135 25.3133 150.06 25.388C149.986 25.4627 149.895 25.5 149.788 25.5H148.46C148.343 25.5 148.247 25.4627 148.172 25.388C148.108 25.3133 148.076 25.2227 148.076 25.116V19.084L148.668 19.164L144.236 25.244C144.194 25.308 144.135 25.3667 144.06 25.42C143.996 25.4733 143.911 25.5 143.804 25.5H142.588ZM152.381 25.5C152.274 25.5 152.189 25.468 152.125 25.404C152.061 25.34 152.029 25.26 152.029 25.164V17.484C152.029 17.3987 152.061 17.3293 152.125 17.276C152.2 17.212 152.274 17.18 152.349 17.18H153.693C153.874 17.18 154.013 17.2707 154.109 17.452L156.573 21.932L159.037 17.452C159.133 17.2707 159.272 17.18 159.453 17.18H160.781C160.877 17.18 160.957 17.212 161.021 17.276C161.085 17.3293 161.117 17.3987 161.117 17.484V25.164C161.117 25.26 161.085 25.34 161.021 25.404C160.957 25.468 160.872 25.5 160.765 25.5H159.389C159.282 25.5 159.197 25.468 159.133 25.404C159.08 25.34 159.053 25.26 159.053 25.164V19.356L159.709 19.468L157.341 23.836C157.288 23.932 157.224 24.0227 157.149 24.108C157.074 24.1827 156.968 24.22 156.829 24.22H156.301C156.173 24.22 156.072 24.1827 155.997 24.108C155.922 24.0333 155.858 23.9427 155.805 23.836L153.485 19.644L154.093 19.548V25.164C154.093 25.26 154.061 25.34 153.997 25.404C153.933 25.468 153.853 25.5 153.757 25.5H152.381ZM166.703 25.66C165.519 25.66 164.58 25.3187 163.887 24.636C163.194 23.9533 162.82 22.9827 162.767 21.724C162.756 21.6173 162.751 21.484 162.751 21.324C162.751 21.1533 162.756 21.02 162.767 20.924C162.81 20.124 162.991 19.4307 163.311 18.844C163.642 18.2573 164.095 17.8093 164.671 17.5C165.247 17.18 165.924 17.02 166.703 17.02C167.567 17.02 168.292 17.2013 168.879 17.564C169.466 17.916 169.908 18.412 170.207 19.052C170.506 19.6813 170.655 20.412 170.655 21.244V21.58C170.655 21.6867 170.618 21.7773 170.543 21.852C170.468 21.9267 170.372 21.964 170.255 21.964H164.943C164.943 21.964 164.943 21.98 164.943 22.012C164.943 22.044 164.943 22.0707 164.943 22.092C164.954 22.4653 165.023 22.812 165.151 23.132C165.29 23.4413 165.487 23.692 165.743 23.884C166.01 24.076 166.324 24.172 166.687 24.172C166.986 24.172 167.236 24.1293 167.439 24.044C167.642 23.948 167.807 23.8413 167.935 23.724C168.063 23.6067 168.154 23.5107 168.207 23.436C168.303 23.308 168.378 23.2333 168.431 23.212C168.495 23.18 168.586 23.164 168.703 23.164H170.079C170.186 23.164 170.271 23.196 170.335 23.26C170.41 23.324 170.442 23.404 170.431 23.5C170.42 23.6707 170.33 23.8787 170.159 24.124C169.999 24.3693 169.764 24.6093 169.455 24.844C169.146 25.0787 168.756 25.276 168.287 25.436C167.828 25.5853 167.3 25.66 166.703 25.66ZM164.943 20.62H168.479V20.572C168.479 20.156 168.41 19.7933 168.271 19.484C168.132 19.1747 167.93 18.9293 167.663 18.748C167.396 18.5667 167.076 18.476 166.703 18.476C166.33 18.476 166.01 18.5667 165.743 18.748C165.476 18.9293 165.274 19.1747 165.135 19.484C165.007 19.7933 164.943 20.156 164.943 20.572V20.62ZM172.578 25.5C172.471 25.5 172.38 25.4627 172.306 25.388C172.231 25.3133 172.194 25.2227 172.194 25.116V17.564C172.194 17.4573 172.231 17.3667 172.306 17.292C172.38 17.2173 172.471 17.18 172.578 17.18H173.906C174.023 17.18 174.114 17.2173 174.178 17.292C174.252 17.3667 174.29 17.4573 174.29 17.564V20.428H177.906V17.564C177.906 17.4573 177.943 17.3667 178.018 17.292C178.092 17.2173 178.183 17.18 178.29 17.18H179.618C179.724 17.18 179.815 17.2173 179.89 17.292C179.964 17.3667 180.002 17.4573 180.002 17.564V25.116C180.002 25.2227 179.964 25.3133 179.89 25.388C179.815 25.4627 179.724 25.5 179.618 25.5H178.29C178.183 25.5 178.092 25.4627 178.018 25.388C177.943 25.3133 177.906 25.2227 177.906 25.116V22.108H174.29V25.116C174.29 25.2227 174.252 25.3133 174.178 25.388C174.114 25.4627 174.023 25.5 173.906 25.5H172.578ZM182.37 25.5C182.274 25.5 182.189 25.4627 182.114 25.388C182.04 25.3133 182.002 25.228 182.002 25.132V17.564C182.002 17.4573 182.04 17.3667 182.114 17.292C182.189 17.2173 182.28 17.18 182.386 17.18H183.714C183.832 17.18 183.922 17.2173 183.986 17.292C184.061 17.3667 184.098 17.4573 184.098 17.564V23.884L183.538 23.484L187.938 17.436C187.992 17.3613 188.05 17.3027 188.114 17.26C188.178 17.2067 188.264 17.18 188.37 17.18H189.586C189.682 17.18 189.768 17.2173 189.842 17.292C189.917 17.356 189.954 17.436 189.954 17.532V25.116C189.954 25.2227 189.917 25.3133 189.842 25.388C189.768 25.4627 189.677 25.5 189.57 25.5H188.242C188.125 25.5 188.029 25.4627 187.954 25.388C187.89 25.3133 187.858 25.2227 187.858 25.116V19.084L188.45 19.164L184.018 25.244C183.976 25.308 183.917 25.3667 183.842 25.42C183.778 25.4733 183.693 25.5 183.586 25.5H182.37ZM194.355 25.5C194.238 25.5 194.142 25.4627 194.067 25.388C194.003 25.3133 193.971 25.2227 193.971 25.116V18.876H191.363C191.246 18.876 191.15 18.8387 191.075 18.764C191.011 18.6893 190.979 18.5987 190.979 18.492V17.564C190.979 17.4573 191.011 17.3667 191.075 17.292C191.15 17.2173 191.246 17.18 191.363 17.18H198.627C198.744 17.18 198.84 17.2173 198.915 17.292C198.99 17.3667 199.027 17.4573 199.027 17.564V18.492C199.027 18.5987 198.99 18.6893 198.915 18.764C198.84 18.8387 198.744 18.876 198.627 18.876H196.035V25.116C196.035 25.2227 195.998 25.3133 195.923 25.388C195.848 25.4627 195.758 25.5 195.651 25.5H194.355ZM200.519 25.5C200.413 25.5 200.322 25.4627 200.247 25.388C200.173 25.3133 200.135 25.2227 200.135 25.116V17.564C200.135 17.4573 200.173 17.3667 200.247 17.292C200.322 17.2173 200.413 17.18 200.519 17.18H201.863C201.97 17.18 202.061 17.2173 202.135 17.292C202.21 17.3667 202.247 17.4573 202.247 17.564V19.82H203.895C204.983 19.82 205.799 20.076 206.343 20.588C206.887 21.1 207.159 21.804 207.159 22.7C207.159 23.628 206.866 24.3267 206.279 24.796C205.693 25.2653 204.855 25.5 203.767 25.5H200.519ZM202.215 23.98H203.719C204.242 23.98 204.626 23.884 204.871 23.692C205.127 23.5 205.255 23.1693 205.255 22.7C205.255 22.2413 205.133 21.9 204.887 21.676C204.653 21.452 204.263 21.34 203.719 21.34H202.215V23.98Z" fill="white"/>
<defs>
<linearGradient id="paint0_linear_38_3123" x1="-39.975" y1="20" x2="403.85" y2="20" gradientUnits="userSpaceOnUse">
<stop stop-color="#F29D4E"/>
<stop offset="0.427885" stop-color="#E0524E"/>
<stop offset="1" stop-color="#AF407A"/>
</linearGradient>
</defs>
</svg>
