<svg width="44" height="31" viewBox="0 0 44 31" fill="none" xmlns="http://www.w3.org/2000/svg">
<rect x="0.5" y="0.5" width="43" height="30" rx="15" fill="url(#paint0_linear_38_3111)"/>
<rect x="0.5" y="0.5" width="43" height="30" rx="15" stroke="url(#paint1_linear_38_3111)"/>
<mask id="path-2-outside-1_38_3111" maskUnits="userSpaceOnUse" x="8" y="9" width="28" height="13" fill="black">
<rect fill="white" x="8" y="9" width="28" height="13"/>
<path d="M9.54 20C9.43733 20 9.358 19.972 9.302 19.916C9.246 19.8507 9.218 19.7713 9.218 19.678V10.536C9.218 10.4333 9.246 10.354 9.302 10.298C9.358 10.2327 9.43733 10.2 9.54 10.2H13.096C13.7867 10.2 14.384 10.312 14.888 10.536C15.4013 10.76 15.798 11.096 16.078 11.544C16.358 11.9827 16.498 12.5333 16.498 13.196C16.498 13.8587 16.358 14.4093 16.078 14.848C15.798 15.2867 15.4013 15.618 14.888 15.842C14.384 16.066 13.7867 16.178 13.096 16.178H10.618V19.678C10.618 19.7713 10.5853 19.8507 10.52 19.916C10.464 19.972 10.3847 20 10.282 20H9.54ZM10.604 15.002H13.026C13.7167 15.002 14.2347 14.848 14.58 14.54C14.9253 14.232 15.098 13.784 15.098 13.196C15.098 12.6173 14.93 12.1693 14.594 11.852C14.258 11.5347 13.7353 11.376 13.026 11.376H10.604V15.002ZM18.3824 20C18.2798 20 18.2004 19.972 18.1444 19.916C18.0884 19.8507 18.0604 19.7713 18.0604 19.678V10.536C18.0604 10.4333 18.0884 10.354 18.1444 10.298C18.2004 10.2327 18.2798 10.2 18.3824 10.2H21.7984C22.8531 10.2 23.6884 10.4473 24.3044 10.942C24.9204 11.4367 25.2284 12.1693 25.2284 13.14C25.2284 13.8587 25.0464 14.4467 24.6824 14.904C24.3278 15.352 23.8424 15.6647 23.2264 15.842L25.3824 19.566C25.4104 19.622 25.4244 19.6733 25.4244 19.72C25.4244 19.7947 25.3918 19.86 25.3264 19.916C25.2704 19.972 25.2051 20 25.1304 20H24.4584C24.2998 20 24.1831 19.958 24.1084 19.874C24.0338 19.79 23.9684 19.706 23.9124 19.622L21.8824 16.066H19.4324V19.678C19.4324 19.7713 19.3998 19.8507 19.3344 19.916C19.2784 19.972 19.1991 20 19.0964 20H18.3824ZM19.4324 14.876H21.7424C22.4424 14.876 22.9651 14.7313 23.3104 14.442C23.6558 14.1433 23.8284 13.7047 23.8284 13.126C23.8284 12.5567 23.6558 12.1227 23.3104 11.824C22.9744 11.5253 22.4518 11.376 21.7424 11.376H19.4324V14.876ZM30.5946 20.14C29.8012 20.14 29.1199 20.0047 28.5506 19.734C27.9812 19.454 27.5426 19.0293 27.2346 18.46C26.9266 17.8813 26.7539 17.158 26.7166 16.29C26.7072 15.8793 26.7026 15.4873 26.7026 15.114C26.7026 14.7313 26.7072 14.3347 26.7166 13.924C26.7539 13.0653 26.9312 12.3513 27.2486 11.782C27.5752 11.2033 28.0232 10.774 28.5926 10.494C29.1712 10.2047 29.8386 10.06 30.5946 10.06C31.3599 10.06 32.0272 10.2047 32.5966 10.494C33.1752 10.774 33.6279 11.2033 33.9546 11.782C34.2812 12.3513 34.4586 13.0653 34.4866 13.924C34.5052 14.3347 34.5146 14.7313 34.5146 15.114C34.5146 15.4873 34.5052 15.8793 34.4866 16.29C34.4586 17.158 34.2859 17.8813 33.9686 18.46C33.6606 19.0293 33.2219 19.454 32.6526 19.734C32.0832 20.0047 31.3972 20.14 30.5946 20.14ZM30.5946 18.95C31.3132 18.95 31.8966 18.7353 32.3446 18.306C32.8019 17.8767 33.0492 17.1813 33.0866 16.22C33.1052 15.8 33.1146 15.4267 33.1146 15.1C33.1146 14.764 33.1052 14.3907 33.0866 13.98C33.0679 13.336 32.9466 12.8133 32.7226 12.412C32.5079 12.0107 32.2186 11.7167 31.8546 11.53C31.4906 11.3433 31.0706 11.25 30.5946 11.25C30.1372 11.25 29.7266 11.3433 29.3626 11.53C28.9986 11.7167 28.7046 12.0107 28.4806 12.412C28.2659 12.8133 28.1446 13.336 28.1166 13.98C28.1072 14.3907 28.1026 14.764 28.1026 15.1C28.1026 15.4267 28.1072 15.8 28.1166 16.22C28.1539 17.1813 28.4012 17.8767 28.8586 18.306C29.3159 18.7353 29.8946 18.95 30.5946 18.95Z"/>
</mask>
<path d="M9.54 20C9.43733 20 9.358 19.972 9.302 19.916C9.246 19.8507 9.218 19.7713 9.218 19.678V10.536C9.218 10.4333 9.246 10.354 9.302 10.298C9.358 10.2327 9.43733 10.2 9.54 10.2H13.096C13.7867 10.2 14.384 10.312 14.888 10.536C15.4013 10.76 15.798 11.096 16.078 11.544C16.358 11.9827 16.498 12.5333 16.498 13.196C16.498 13.8587 16.358 14.4093 16.078 14.848C15.798 15.2867 15.4013 15.618 14.888 15.842C14.384 16.066 13.7867 16.178 13.096 16.178H10.618V19.678C10.618 19.7713 10.5853 19.8507 10.52 19.916C10.464 19.972 10.3847 20 10.282 20H9.54ZM10.604 15.002H13.026C13.7167 15.002 14.2347 14.848 14.58 14.54C14.9253 14.232 15.098 13.784 15.098 13.196C15.098 12.6173 14.93 12.1693 14.594 11.852C14.258 11.5347 13.7353 11.376 13.026 11.376H10.604V15.002ZM18.3824 20C18.2798 20 18.2004 19.972 18.1444 19.916C18.0884 19.8507 18.0604 19.7713 18.0604 19.678V10.536C18.0604 10.4333 18.0884 10.354 18.1444 10.298C18.2004 10.2327 18.2798 10.2 18.3824 10.2H21.7984C22.8531 10.2 23.6884 10.4473 24.3044 10.942C24.9204 11.4367 25.2284 12.1693 25.2284 13.14C25.2284 13.8587 25.0464 14.4467 24.6824 14.904C24.3278 15.352 23.8424 15.6647 23.2264 15.842L25.3824 19.566C25.4104 19.622 25.4244 19.6733 25.4244 19.72C25.4244 19.7947 25.3918 19.86 25.3264 19.916C25.2704 19.972 25.2051 20 25.1304 20H24.4584C24.2998 20 24.1831 19.958 24.1084 19.874C24.0338 19.79 23.9684 19.706 23.9124 19.622L21.8824 16.066H19.4324V19.678C19.4324 19.7713 19.3998 19.8507 19.3344 19.916C19.2784 19.972 19.1991 20 19.0964 20H18.3824ZM19.4324 14.876H21.7424C22.4424 14.876 22.9651 14.7313 23.3104 14.442C23.6558 14.1433 23.8284 13.7047 23.8284 13.126C23.8284 12.5567 23.6558 12.1227 23.3104 11.824C22.9744 11.5253 22.4518 11.376 21.7424 11.376H19.4324V14.876ZM30.5946 20.14C29.8012 20.14 29.1199 20.0047 28.5506 19.734C27.9812 19.454 27.5426 19.0293 27.2346 18.46C26.9266 17.8813 26.7539 17.158 26.7166 16.29C26.7072 15.8793 26.7026 15.4873 26.7026 15.114C26.7026 14.7313 26.7072 14.3347 26.7166 13.924C26.7539 13.0653 26.9312 12.3513 27.2486 11.782C27.5752 11.2033 28.0232 10.774 28.5926 10.494C29.1712 10.2047 29.8386 10.06 30.5946 10.06C31.3599 10.06 32.0272 10.2047 32.5966 10.494C33.1752 10.774 33.6279 11.2033 33.9546 11.782C34.2812 12.3513 34.4586 13.0653 34.4866 13.924C34.5052 14.3347 34.5146 14.7313 34.5146 15.114C34.5146 15.4873 34.5052 15.8793 34.4866 16.29C34.4586 17.158 34.2859 17.8813 33.9686 18.46C33.6606 19.0293 33.2219 19.454 32.6526 19.734C32.0832 20.0047 31.3972 20.14 30.5946 20.14ZM30.5946 18.95C31.3132 18.95 31.8966 18.7353 32.3446 18.306C32.8019 17.8767 33.0492 17.1813 33.0866 16.22C33.1052 15.8 33.1146 15.4267 33.1146 15.1C33.1146 14.764 33.1052 14.3907 33.0866 13.98C33.0679 13.336 32.9466 12.8133 32.7226 12.412C32.5079 12.0107 32.2186 11.7167 31.8546 11.53C31.4906 11.3433 31.0706 11.25 30.5946 11.25C30.1372 11.25 29.7266 11.3433 29.3626 11.53C28.9986 11.7167 28.7046 12.0107 28.4806 12.412C28.2659 12.8133 28.1446 13.336 28.1166 13.98C28.1072 14.3907 28.1026 14.764 28.1026 15.1C28.1026 15.4267 28.1072 15.8 28.1166 16.22C28.1539 17.1813 28.4012 17.8767 28.8586 18.306C29.3159 18.7353 29.8946 18.95 30.5946 18.95Z" fill="#764400"/>
<path d="M9.302 19.916L8.54274 20.5668L8.56774 20.596L8.59489 20.6231L9.302 19.916ZM9.302 10.298L10.0091 11.0051L10.0363 10.978L10.0613 10.9488L9.302 10.298ZM14.888 10.536L14.4819 11.4498L14.4881 11.4525L14.888 10.536ZM16.078 11.544L15.23 12.074L15.2351 12.082L16.078 11.544ZM16.078 14.848L15.2351 14.31L15.2351 14.31L16.078 14.848ZM14.888 15.842L14.488 14.9254L14.4819 14.9282L14.888 15.842ZM10.618 16.178V15.178H9.618V16.178H10.618ZM10.52 19.916L9.81289 19.2089L9.81289 19.2089L10.52 19.916ZM10.604 15.002H9.604V16.002H10.604V15.002ZM14.594 11.852L13.9074 12.579L13.9074 12.579L14.594 11.852ZM10.604 11.376V10.376H9.604V11.376H10.604ZM9.54 20V19C9.62054 19 9.82661 19.0264 10.0091 19.2089L9.302 19.916L8.59489 20.6231C8.88939 20.9176 9.25412 21 9.54 21V20ZM9.302 19.916L10.0613 19.2652C10.1117 19.3241 10.154 19.3952 10.182 19.4747C10.2096 19.553 10.218 19.6236 10.218 19.678H9.218H8.218C8.218 19.9883 8.31778 20.3043 8.54274 20.5668L9.302 19.916ZM9.218 19.678H10.218V10.536H9.218H8.218V19.678H9.218ZM9.218 10.536H10.218C10.218 10.6165 10.1916 10.8226 10.0091 11.0051L9.302 10.298L8.59489 9.59089C8.30039 9.88539 8.218 10.2501 8.218 10.536H9.218ZM9.302 10.298L10.0613 10.9488C9.9868 11.0357 9.89106 11.1052 9.78425 11.1492C9.68188 11.1913 9.59414 11.2 9.54 11.2V10.2V9.2C9.20741 9.2 8.82567 9.31712 8.54274 9.64721L9.302 10.298ZM9.54 10.2V11.2H13.096V10.2V9.2H9.54V10.2ZM13.096 10.2V11.2C13.681 11.2 14.1337 11.2951 14.4819 11.4498L14.888 10.536L15.2941 9.62219C14.6343 9.32894 13.8924 9.2 13.096 9.2V10.2ZM14.888 10.536L14.4881 11.4525C14.8282 11.601 15.0635 11.8076 15.23 12.074L16.078 11.544L16.926 11.014C16.5325 10.3844 15.9745 9.91903 15.2879 9.61946L14.888 10.536ZM16.078 11.544L15.2351 12.082C15.3879 12.3214 15.498 12.6723 15.498 13.196H16.498H17.498C17.498 12.3943 17.3281 11.6439 16.9209 11.006L16.078 11.544ZM16.498 13.196H15.498C15.498 13.7197 15.3879 14.0706 15.2351 14.31L16.078 14.848L16.9209 15.386C17.3281 14.7481 17.498 13.9977 17.498 13.196H16.498ZM16.078 14.848L15.2351 14.31C15.0701 14.5684 14.834 14.7745 14.4881 14.9255L14.888 15.842L15.2879 16.7585C15.9687 16.4615 16.5259 16.0049 16.9209 15.386L16.078 14.848ZM14.888 15.842L14.4819 14.9282C14.1337 15.0829 13.681 15.178 13.096 15.178V16.178V17.178C13.8924 17.178 14.6343 17.0491 15.2941 16.7558L14.888 15.842ZM13.096 16.178V15.178H10.618V16.178V17.178H13.096V16.178ZM10.618 16.178H9.618V19.678H10.618H11.618V16.178H10.618ZM10.618 19.678H9.618C9.618 19.6056 9.63121 19.5181 9.66882 19.4268C9.70652 19.3352 9.75946 19.2623 9.81289 19.2089L10.52 19.916L11.2271 20.6231C11.4821 20.3681 11.618 20.0335 11.618 19.678H10.618ZM10.52 19.916L9.81289 19.2089C9.99539 19.0264 10.2015 19 10.282 19V20V21C10.5679 21 10.9326 20.9176 11.2271 20.6231L10.52 19.916ZM10.282 20V19H9.54V20V21H10.282V20ZM10.604 15.002V16.002H13.026V15.002V14.002H10.604V15.002ZM13.026 15.002V16.002C13.8444 16.002 14.645 15.822 15.2456 15.2863L14.58 14.54L13.9144 13.7937C13.8244 13.874 13.5889 14.002 13.026 14.002V15.002ZM14.58 14.54L15.2456 15.2863C15.8584 14.7398 16.098 13.9865 16.098 13.196H15.098H14.098C14.098 13.5815 13.9923 13.7242 13.9144 13.7937L14.58 14.54ZM15.098 13.196H16.098C16.098 12.4161 15.8647 11.6766 15.2806 11.125L14.594 11.852L13.9074 12.579C13.9953 12.6621 14.098 12.8186 14.098 13.196H15.098ZM14.594 11.852L15.2806 11.125C14.681 10.5587 13.8581 10.376 13.026 10.376V11.376V12.376C13.6126 12.376 13.835 12.5107 13.9074 12.579L14.594 11.852ZM13.026 11.376V10.376H10.604V11.376V12.376H13.026V11.376ZM10.604 11.376H9.604V15.002H10.604H11.604V11.376H10.604ZM18.1444 19.916L17.3852 20.5668L17.4102 20.596L17.4373 20.6231L18.1444 19.916ZM18.1444 10.298L18.8515 11.0051L18.8787 10.978L18.9037 10.9488L18.1444 10.298ZM24.3044 10.942L23.6783 11.7217L24.3044 10.942ZM24.6824 14.904L23.9 14.2813L23.8984 14.2833L24.6824 14.904ZM23.2264 15.842L22.9498 14.881L21.7196 15.2352L22.361 16.343L23.2264 15.842ZM25.3824 19.566L26.2768 19.1188L26.2632 19.0914L26.2478 19.065L25.3824 19.566ZM25.3264 19.916L24.6756 19.1567L24.6465 19.1817L24.6193 19.2089L25.3264 19.916ZM24.1084 19.874L24.8558 19.2096L24.8558 19.2096L24.1084 19.874ZM23.9124 19.622L23.044 20.1178L23.0611 20.1479L23.0804 20.1767L23.9124 19.622ZM21.8824 16.066L22.7509 15.5702L22.463 15.066H21.8824V16.066ZM19.4324 16.066V15.066H18.4324V16.066H19.4324ZM19.3344 19.916L18.6273 19.2089V19.2089L19.3344 19.916ZM19.4324 14.876H18.4324V15.876H19.4324V14.876ZM23.3104 14.442L23.9526 15.2085L23.9586 15.2035L23.9646 15.1984L23.3104 14.442ZM23.3104 11.824L22.646 12.5715L22.6563 12.5804L23.3104 11.824ZM19.4324 11.376V10.376H18.4324V11.376H19.4324ZM18.3824 20V19C18.463 19 18.669 19.0264 18.8515 19.2089L18.1444 19.916L17.4373 20.6231C17.7318 20.9176 18.0965 21 18.3824 21V20ZM18.1444 19.916L18.9037 19.2652C18.9542 19.3241 18.9964 19.3952 19.0244 19.4747C19.052 19.553 19.0604 19.6236 19.0604 19.678H18.0604H17.0604C17.0604 19.9883 17.1602 20.3043 17.3852 20.5668L18.1444 19.916ZM18.0604 19.678H19.0604V10.536H18.0604H17.0604V19.678H18.0604ZM18.0604 10.536H19.0604C19.0604 10.6165 19.034 10.8226 18.8515 11.0051L18.1444 10.298L17.4373 9.59089C17.1428 9.88539 17.0604 10.2501 17.0604 10.536H18.0604ZM18.1444 10.298L18.9037 10.9488C18.8292 11.0357 18.7335 11.1052 18.6267 11.1492C18.5243 11.1913 18.4366 11.2 18.3824 11.2V10.2V9.2C18.0498 9.2 17.6681 9.31712 17.3852 9.64721L18.1444 10.298ZM18.3824 10.2V11.2H21.7984V10.2V9.2H18.3824V10.2ZM21.7984 10.2V11.2C22.7017 11.2 23.2914 11.411 23.6783 11.7217L24.3044 10.942L24.9306 10.1623C24.0854 9.48363 23.0044 9.2 21.7984 9.2V10.2ZM24.3044 10.942L23.6783 11.7217C24.0042 11.9834 24.2284 12.3961 24.2284 13.14H25.2284H26.2284C26.2284 11.9426 25.8367 10.8899 24.9306 10.1623L24.3044 10.942ZM25.2284 13.14H24.2284C24.2284 13.6858 24.0931 14.0386 23.9 14.2813L24.6824 14.904L25.4648 15.5267C25.9997 14.8547 26.2284 14.0315 26.2284 13.14H25.2284ZM24.6824 14.904L23.8984 14.2833C23.6888 14.5481 23.3908 14.7541 22.9498 14.881L23.2264 15.842L23.5031 16.803C24.2941 16.5753 24.9668 16.1559 25.4665 15.5247L24.6824 14.904ZM23.2264 15.842L22.361 16.343L24.517 20.067L25.3824 19.566L26.2478 19.065L24.0918 15.341L23.2264 15.842ZM25.3824 19.566L24.488 20.0132C24.4692 19.9756 24.4244 19.8723 24.4244 19.72H25.4244H26.4244C26.4244 19.4744 26.3516 19.2684 26.2768 19.1188L25.3824 19.566ZM25.4244 19.72H24.4244C24.4244 19.6057 24.4508 19.4871 24.5055 19.3778C24.5584 19.272 24.6248 19.2003 24.6756 19.1567L25.3264 19.916L25.9772 20.6753C26.2266 20.4615 26.4244 20.1327 26.4244 19.72H25.4244ZM25.3264 19.916L24.6193 19.2089C24.671 19.1572 24.7446 19.1014 24.8415 19.0599C24.9396 19.0178 25.0393 19 25.1304 19V20V21C25.4876 21 25.8026 20.854 26.0335 20.6231L25.3264 19.916ZM25.1304 20V19H24.4584V20V21H25.1304V20ZM24.4584 20V19C24.4641 19 24.6728 19.0038 24.8558 19.2096L24.1084 19.874L23.361 20.5384C23.6934 20.9122 24.1354 21 24.4584 21V20ZM24.1084 19.874L24.8558 19.2096C24.8085 19.1564 24.7721 19.1088 24.7445 19.0673L23.9124 19.622L23.0804 20.1767C23.1647 20.3032 23.259 20.4236 23.361 20.5384L24.1084 19.874ZM23.9124 19.622L24.7809 19.1262L22.7509 15.5702L21.8824 16.066L21.014 16.5618L23.044 20.1178L23.9124 19.622ZM21.8824 16.066V15.066H19.4324V16.066V17.066H21.8824V16.066ZM19.4324 16.066H18.4324V19.678H19.4324H20.4324V16.066H19.4324ZM19.4324 19.678H18.4324C18.4324 19.6056 18.4456 19.5181 18.4832 19.4268C18.5209 19.3352 18.5739 19.2623 18.6273 19.2089L19.3344 19.916L20.0415 20.6231C20.2965 20.3681 20.4324 20.0335 20.4324 19.678H19.4324ZM19.3344 19.916L18.6273 19.2089C18.8098 19.0264 19.0159 19 19.0964 19V20V21C19.3823 21 19.747 20.9176 20.0415 20.6231L19.3344 19.916ZM19.0964 20V19H18.3824V20V21H19.0964V20ZM19.4324 14.876V15.876H21.7424V14.876V13.876H19.4324V14.876ZM21.7424 14.876V15.876C22.5537 15.876 23.3511 15.7125 23.9526 15.2085L23.3104 14.442L22.6682 13.6755C22.5791 13.7501 22.3311 13.876 21.7424 13.876V14.876ZM23.3104 14.442L23.9646 15.1984C24.5857 14.6611 24.8284 13.9114 24.8284 13.126H23.8284H22.8284C22.8284 13.4979 22.7258 13.6255 22.6563 13.6856L23.3104 14.442ZM23.8284 13.126H24.8284C24.8284 12.3439 24.5821 11.6017 23.9646 11.0676L23.3104 11.824L22.6563 12.5804C22.7294 12.6436 22.8284 12.7694 22.8284 13.126H23.8284ZM23.3104 11.824L23.9748 11.0766C23.3753 10.5437 22.562 10.376 21.7424 10.376V11.376V12.376C22.3415 12.376 22.5735 12.5069 22.6461 12.5714L23.3104 11.824ZM21.7424 11.376V10.376H19.4324V11.376V12.376H21.7424V11.376ZM19.4324 11.376H18.4324V14.876H19.4324H20.4324V11.376H19.4324ZM28.5506 19.734L28.1092 20.6314L28.1212 20.6371L28.5506 19.734ZM27.2346 18.46L26.3518 18.9299L26.355 18.9358L27.2346 18.46ZM26.7166 16.29L25.7168 16.3127L25.7171 16.3228L25.7175 16.333L26.7166 16.29ZM26.7166 13.924L25.7175 13.8806L25.7171 13.8909L25.7168 13.9013L26.7166 13.924ZM27.2486 11.782L26.3777 11.2904L26.3751 11.2951L27.2486 11.782ZM28.5926 10.494L29.0339 11.3914L29.0398 11.3884L28.5926 10.494ZM32.5966 10.494L32.1435 11.3855L32.1522 11.3899L32.161 11.3942L32.5966 10.494ZM33.9546 11.782L33.0837 12.2736L33.0872 12.2797L33.9546 11.782ZM34.4866 13.924L33.487 13.9566L33.4876 13.9694L34.4866 13.924ZM34.4866 16.29L33.4875 16.2446L33.4871 16.2578L34.4866 16.29ZM33.9686 18.46L33.0918 17.9792L33.089 17.9842L33.9686 18.46ZM32.6526 19.734L33.082 20.6372L33.0939 20.6313L32.6526 19.734ZM32.3446 18.306L31.6601 17.5769L31.6527 17.584L32.3446 18.306ZM33.0866 16.22L32.0875 16.1756L32.0873 16.1812L33.0866 16.22ZM33.0866 13.98L32.087 14.009L32.0872 14.0172L32.0876 14.0254L33.0866 13.98ZM32.7226 12.412L31.8408 12.8837L31.845 12.8915L31.8494 12.8994L32.7226 12.412ZM31.8546 11.53L32.3109 10.6402V10.6402L31.8546 11.53ZM29.3626 11.53L28.9063 10.6402V10.6402L29.3626 11.53ZM28.4806 12.412L27.6074 11.9246L27.603 11.9325L27.5988 11.9403L28.4806 12.412ZM28.1166 13.98L27.1175 13.9366L27.1171 13.9469L27.1168 13.9573L28.1166 13.98ZM28.1166 16.22L27.1168 16.2422L27.117 16.2505L27.1173 16.2588L28.1166 16.22ZM28.8586 18.306L29.543 17.5769H29.543L28.8586 18.306ZM30.5946 20.14V19.14C29.9125 19.14 29.3851 19.0235 28.9799 18.8309L28.5506 19.734L28.1212 20.6371C28.8547 20.9859 29.69 21.14 30.5946 21.14V20.14ZM28.5506 19.734L28.9919 18.8366C28.6128 18.6502 28.3255 18.3749 28.1141 17.9842L27.2346 18.46L26.355 18.9358C26.7597 19.6838 27.3496 20.2578 28.1093 20.6313L28.5506 19.734ZM27.2346 18.46L28.1173 17.9902C27.8984 17.5789 27.7486 17.0122 27.7157 16.247L26.7166 16.29L25.7175 16.333C25.7593 17.3038 25.9547 18.1838 26.3518 18.9298L27.2346 18.46ZM26.7166 16.29L27.7163 16.2673C27.7071 15.8634 27.7026 15.4791 27.7026 15.114H26.7026H25.7026C25.7026 15.4956 25.7073 15.8952 25.7168 16.3127L26.7166 16.29ZM26.7026 15.114H27.7026C27.7026 14.7394 27.7071 14.3504 27.7163 13.9467L26.7166 13.924L25.7168 13.9013C25.7073 14.319 25.7026 14.7232 25.7026 15.114H26.7026ZM26.7166 13.924L27.7156 13.9674C27.7483 13.2168 27.9007 12.6659 28.1221 12.2689L27.2486 11.782L26.3751 11.2951C25.9617 12.0367 25.7596 12.9139 25.7175 13.8806L26.7166 13.924ZM27.2486 11.782L28.1194 12.2736C28.352 11.8616 28.6542 11.5781 29.0339 11.3913L28.5926 10.494L28.1513 9.59665C27.3923 9.96991 26.7985 10.5451 26.3778 11.2904L27.2486 11.782ZM28.5926 10.494L29.0398 11.3884C29.458 11.1793 29.9677 11.06 30.5946 11.06V10.06V9.06C29.7094 9.06 28.8845 9.23001 28.1454 9.59957L28.5926 10.494ZM30.5946 10.06V11.06C31.2334 11.06 31.7398 11.1803 32.1435 11.3855L32.5966 10.494L33.0496 9.60251C32.3147 9.22903 31.4864 9.06 30.5946 9.06V10.06ZM32.5966 10.494L32.161 11.3942C32.5499 11.5823 32.8536 11.8659 33.0838 12.2736L33.9546 11.782L34.8254 11.2904C34.4022 10.5408 33.8006 9.96566 33.0321 9.59384L32.5966 10.494ZM33.9546 11.782L33.0872 12.2797C33.3112 12.6701 33.4628 13.2126 33.4871 13.9566L34.4866 13.924L35.486 13.8914C35.4543 12.918 35.2513 12.0326 34.8219 11.2843L33.9546 11.782ZM34.4866 13.924L33.4876 13.9694C33.5056 14.3661 33.5146 14.7475 33.5146 15.114H34.5146H35.5146C35.5146 14.7151 35.5049 14.3033 35.4855 13.8786L34.4866 13.924ZM34.5146 15.114H33.5146C33.5146 15.4708 33.5057 15.8476 33.4876 16.2446L34.4866 16.29L35.4855 16.3354C35.5048 15.9111 35.5146 15.5039 35.5146 15.114H34.5146ZM34.4866 16.29L33.4871 16.2578C33.4626 17.0164 33.3135 17.5748 33.0918 17.9792L33.9686 18.46L34.8454 18.9408C35.2583 18.1878 35.4545 17.2996 35.4861 16.3222L34.4866 16.29ZM33.9686 18.46L33.089 17.9842C32.8777 18.3749 32.5903 18.6502 32.2113 18.8366L32.6526 19.734L33.0939 20.6313C33.8535 20.2578 34.4435 19.6838 34.8481 18.9358L33.9686 18.46ZM32.6526 19.734L32.2232 18.8309C31.8195 19.0228 31.288 19.14 30.5946 19.14V20.14V21.14C31.5065 21.14 32.347 20.9865 33.0819 20.6371L32.6526 19.734ZM30.5946 18.95V19.95C31.5272 19.95 32.3729 19.6639 33.0365 19.028L32.3446 18.306L31.6527 17.584C31.4203 17.8067 31.0992 17.95 30.5946 17.95V18.95ZM32.3446 18.306L33.029 19.0351C33.7588 18.35 34.0436 17.3457 34.0858 16.2588L33.0866 16.22L32.0873 16.1812C32.0549 17.0169 31.8451 17.4033 31.6601 17.5769L32.3446 18.306ZM33.0866 16.22L34.0856 16.2644C34.1047 15.8336 34.1146 15.445 34.1146 15.1H33.1146H32.1146C32.1146 15.4084 32.1057 15.7664 32.0876 16.1756L33.0866 16.22ZM33.1146 15.1H34.1146C34.1146 14.746 34.1048 14.3572 34.0855 13.9346L33.0866 13.98L32.0876 14.0254C32.1057 14.4241 32.1146 14.782 32.1146 15.1H33.1146ZM33.0866 13.98L34.0862 13.951C34.0646 13.2071 33.9232 12.5113 33.5958 11.9246L32.7226 12.412L31.8494 12.8994C31.9699 13.1153 32.0712 13.4649 32.087 14.009L33.0866 13.98ZM32.7226 12.412L33.6044 11.9403C33.305 11.3806 32.8761 10.93 32.3109 10.6402L31.8546 11.53L31.3983 12.4198C31.561 12.5033 31.7108 12.6407 31.8408 12.8837L32.7226 12.412ZM31.8546 11.53L32.3109 10.6402C31.7842 10.3701 31.2033 10.25 30.5946 10.25V11.25V12.25C30.9379 12.25 31.1969 12.3166 31.3983 12.4198L31.8546 11.53ZM30.5946 11.25V10.25C29.9975 10.25 29.4274 10.3729 28.9063 10.6402L29.3626 11.53L29.8189 12.4198C30.0257 12.3137 30.277 12.25 30.5946 12.25V11.25ZM29.3626 11.53L28.9063 10.6402C28.3454 10.9278 27.9153 11.373 27.6074 11.9246L28.4806 12.412L29.3538 12.8994C29.4939 12.6483 29.6517 12.5055 29.8189 12.4198L29.3626 11.53ZM28.4806 12.412L27.5988 11.9403C27.2903 12.517 27.1495 13.201 27.1175 13.9366L28.1166 13.98L29.1156 14.0234C29.1397 13.471 29.2415 13.1096 29.3624 12.8837L28.4806 12.412ZM28.1166 13.98L27.1168 13.9573C27.1074 14.3739 27.1026 14.755 27.1026 15.1H28.1026H29.1026C29.1026 14.773 29.1071 14.4074 29.1163 14.0027L28.1166 13.98ZM28.1026 15.1H27.1026C27.1026 15.4358 27.1074 15.8168 27.1168 16.2422L28.1166 16.22L29.1163 16.1978C29.1071 15.7832 29.1026 15.4175 29.1026 15.1H28.1026ZM28.1166 16.22L27.1173 16.2588C27.1595 17.3457 27.4444 18.35 28.1741 19.0351L28.8586 18.306L29.543 17.5769C29.3581 17.4033 29.1483 17.0169 29.1158 16.1812L28.1166 16.22ZM28.8586 18.306L28.1741 19.0351C28.8389 19.6592 29.6722 19.95 30.5946 19.95V18.95V17.95C30.1169 17.95 29.7929 17.8115 29.543 17.5769L28.8586 18.306Z" fill="url(#paint2_linear_38_3111)" mask="url(#path-2-outside-1_38_3111)"/>
<defs>
<linearGradient id="paint0_linear_38_3111" x1="-0.879999" y1="5.68333" x2="54.3343" y2="13.1824" gradientUnits="userSpaceOnUse">
<stop stop-color="#DA8207"/>
<stop offset="0.0001" stop-color="#DD9318"/>
<stop offset="0.230387" stop-color="#FFCB3C"/>
<stop offset="0.678823" stop-color="#FFCB3C"/>
<stop offset="0.778846" stop-color="#E39C1E"/>
<stop offset="0.923077" stop-color="#FBC63A"/>
</linearGradient>
<linearGradient id="paint1_linear_38_3111" x1="22" y1="0" x2="22" y2="31" gradientUnits="userSpaceOnUse">
<stop stop-color="#F2D56B" stop-opacity="0.59"/>
<stop offset="0.552083" stop-color="#F7C746" stop-opacity="0.705938"/>
<stop offset="1" stop-color="#FBBC28" stop-opacity="0.8"/>
</linearGradient>
<linearGradient id="paint2_linear_38_3111" x1="22.4242" y1="23" x2="21.1086" y2="10.7205" gradientUnits="userSpaceOnUse">
<stop stop-color="#FDECBA"/>
<stop offset="1" stop-color="#FDFFDD" stop-opacity="0"/>
</linearGradient>
</defs>
</svg>
