<svg width="156" height="37" viewBox="0 0 156 37" fill="none" xmlns="http://www.w3.org/2000/svg">
<rect x="0.5" y="0.5" width="155" height="36" rx="18" stroke="url(#paint0_linear_38_3187)"/>
<path d="M17.872 23.14C17.004 23.14 16.2667 22.9907 15.66 22.692C15.0627 22.384 14.6053 21.95 14.288 21.39C13.9707 20.8207 13.7933 20.1393 13.756 19.346C13.7467 18.9633 13.742 18.5527 13.742 18.114C13.742 17.6753 13.7467 17.2553 13.756 16.854C13.7933 16.07 13.9707 15.3933 14.288 14.824C14.6147 14.2547 15.0767 13.8207 15.674 13.522C16.2807 13.214 17.0133 13.06 17.872 13.06C18.5067 13.06 19.076 13.144 19.58 13.312C20.084 13.48 20.5133 13.7133 20.868 14.012C21.2227 14.3013 21.498 14.642 21.694 15.034C21.89 15.426 21.9927 15.8507 22.002 16.308C22.0113 16.392 21.9833 16.462 21.918 16.518C21.862 16.574 21.792 16.602 21.708 16.602H20.378C20.2753 16.602 20.1913 16.5787 20.126 16.532C20.0607 16.476 20.014 16.3873 19.986 16.266C19.8367 15.65 19.58 15.23 19.216 15.006C18.852 14.782 18.3993 14.67 17.858 14.67C17.2327 14.67 16.7333 14.8473 16.36 15.202C15.9867 15.5473 15.786 16.1213 15.758 16.924C15.73 17.6893 15.73 18.4733 15.758 19.276C15.786 20.0787 15.9867 20.6573 16.36 21.012C16.7333 21.3573 17.2327 21.53 17.858 21.53C18.3993 21.53 18.852 21.418 19.216 21.194C19.58 20.9607 19.8367 20.5407 19.986 19.934C20.014 19.8033 20.0607 19.7147 20.126 19.668C20.1913 19.6213 20.2753 19.598 20.378 19.598H21.708C21.792 19.598 21.862 19.626 21.918 19.682C21.9833 19.738 22.0113 19.808 22.002 19.892C21.9927 20.3493 21.89 20.774 21.694 21.166C21.498 21.558 21.2227 21.9033 20.868 22.202C20.5133 22.4913 20.084 22.72 19.58 22.888C19.076 23.056 18.5067 23.14 17.872 23.14ZM26.6443 23.14C25.8696 23.14 25.2256 23.0047 24.7123 22.734C24.2083 22.454 23.8303 22.048 23.5783 21.516C23.3263 20.984 23.1816 20.3353 23.1443 19.57C23.1443 19.2993 23.1443 19.0193 23.1443 18.73C23.1443 18.4407 23.1443 18.1607 23.1443 17.89C23.163 17.0687 23.2423 16.3873 23.3823 15.846C23.5316 15.2953 23.751 14.8427 24.0403 14.488C24.3296 14.124 24.703 13.8253 25.1603 13.592C25.6176 13.3493 26.159 13.1393 26.7843 12.962C27.4096 12.7847 28.133 12.598 28.9543 12.402C29.0476 12.3833 29.1316 12.3973 29.2063 12.444C29.2903 12.4907 29.337 12.5653 29.3463 12.668L29.5283 13.592C29.547 13.6853 29.533 13.7693 29.4863 13.844C29.4396 13.9093 29.3743 13.9513 29.2903 13.97C28.581 14.1287 27.9696 14.2733 27.4563 14.404C26.943 14.5253 26.5183 14.6653 26.1823 14.824C25.8463 14.9827 25.5803 15.1927 25.3843 15.454C25.1976 15.706 25.067 16.0373 24.9923 16.448C24.9176 16.8587 24.8943 17.386 24.9223 18.03L24.6003 17.764C24.6563 17.4747 24.801 17.2087 25.0343 16.966C25.2676 16.7233 25.5523 16.532 25.8883 16.392C26.2336 16.2427 26.5976 16.168 26.9803 16.168C27.6523 16.168 28.217 16.294 28.6743 16.546C29.1316 16.798 29.4816 17.1527 29.7243 17.61C29.9763 18.058 30.1163 18.5853 30.1443 19.192C30.163 19.528 30.163 19.836 30.1443 20.116C30.1163 20.7133 29.967 21.2407 29.6963 21.698C29.4256 22.1553 29.0383 22.51 28.5343 22.762C28.0303 23.014 27.4003 23.14 26.6443 23.14ZM26.6443 21.852C27.1483 21.852 27.5356 21.698 27.8063 21.39C28.077 21.082 28.2216 20.634 28.2403 20.046C28.2496 19.9433 28.2543 19.822 28.2543 19.682C28.2543 19.5327 28.2496 19.3927 28.2403 19.262C28.2216 18.674 28.077 18.226 27.8063 17.918C27.545 17.61 27.195 17.456 26.7563 17.456C26.2523 17.456 25.8463 17.61 25.5383 17.918C25.2396 18.226 25.081 18.674 25.0623 19.262C25.053 19.3927 25.0483 19.5327 25.0483 19.682C25.0483 19.822 25.053 19.9433 25.0623 20.046C25.081 20.634 25.2256 21.082 25.4963 21.39C25.767 21.698 26.1496 21.852 26.6443 21.852ZM31.9178 25.66C31.8245 25.66 31.7452 25.6273 31.6798 25.562C31.6145 25.4967 31.5818 25.4173 31.5818 25.324V16.056C31.5818 15.9627 31.6145 15.8833 31.6798 15.818C31.7452 15.7527 31.8245 15.72 31.9178 15.72H33.0238C33.1265 15.72 33.2058 15.7527 33.2618 15.818C33.3272 15.8833 33.3598 15.9627 33.3598 16.056V16.616C33.5838 16.3173 33.8778 16.07 34.2418 15.874C34.6058 15.678 35.0585 15.58 35.5998 15.58C36.0945 15.58 36.5238 15.6593 36.8878 15.818C37.2518 15.9767 37.5552 16.2053 37.7978 16.504C38.0405 16.7933 38.2272 17.1387 38.3578 17.54C38.4885 17.9413 38.5632 18.3847 38.5818 18.87C38.5912 19.0287 38.5958 19.192 38.5958 19.36C38.5958 19.528 38.5912 19.696 38.5818 19.864C38.5725 20.3307 38.5025 20.7647 38.3718 21.166C38.2412 21.558 38.0498 21.9033 37.7978 22.202C37.5552 22.4913 37.2518 22.72 36.8878 22.888C36.5238 23.056 36.0945 23.14 35.5998 23.14C35.0958 23.14 34.6665 23.0513 34.3118 22.874C33.9572 22.6873 33.6678 22.4447 33.4438 22.146V25.324C33.4438 25.4173 33.4112 25.4967 33.3458 25.562C33.2898 25.6273 33.2105 25.66 33.1078 25.66H31.9178ZM35.0818 21.642C35.4832 21.642 35.7958 21.558 36.0198 21.39C36.2438 21.2127 36.4025 20.984 36.4958 20.704C36.5985 20.424 36.6592 20.116 36.6778 19.78C36.6965 19.5 36.6965 19.22 36.6778 18.94C36.6592 18.604 36.5985 18.296 36.4958 18.016C36.4025 17.736 36.2438 17.512 36.0198 17.344C35.7958 17.1667 35.4832 17.078 35.0818 17.078C34.6992 17.078 34.3865 17.1667 34.1438 17.344C33.9105 17.5213 33.7378 17.75 33.6258 18.03C33.5232 18.3007 33.4625 18.5807 33.4438 18.87C33.4345 19.038 33.4298 19.2153 33.4298 19.402C33.4298 19.5887 33.4345 19.7707 33.4438 19.948C33.4532 20.228 33.5185 20.4987 33.6398 20.76C33.7612 21.012 33.9385 21.222 34.1718 21.39C34.4052 21.558 34.7085 21.642 35.0818 21.642ZM43.2474 23.14C42.5008 23.14 41.8708 23.0093 41.3574 22.748C40.8534 22.4867 40.4661 22.118 40.1954 21.642C39.9341 21.166 39.7848 20.6107 39.7474 19.976C39.7381 19.808 39.7334 19.6027 39.7334 19.36C39.7334 19.1173 39.7381 18.912 39.7474 18.744C39.7848 18.1 39.9388 17.5447 40.2094 17.078C40.4894 16.602 40.8814 16.2333 41.3854 15.972C41.8988 15.7107 42.5194 15.58 43.2474 15.58C43.9754 15.58 44.5914 15.7107 45.0954 15.972C45.6088 16.2333 46.0008 16.602 46.2714 17.078C46.5514 17.5447 46.7101 18.1 46.7474 18.744C46.7568 18.912 46.7614 19.1173 46.7614 19.36C46.7614 19.6027 46.7568 19.808 46.7474 19.976C46.7101 20.6107 46.5561 21.166 46.2854 21.642C46.0241 22.118 45.6368 22.4867 45.1234 22.748C44.6194 23.0093 43.9941 23.14 43.2474 23.14ZM43.2474 21.754C43.7421 21.754 44.1248 21.6 44.3954 21.292C44.6661 20.9747 44.8154 20.5127 44.8434 19.906C44.8528 19.766 44.8574 19.584 44.8574 19.36C44.8574 19.136 44.8528 18.954 44.8434 18.814C44.8154 18.2167 44.6661 17.7593 44.3954 17.442C44.1248 17.1247 43.7421 16.966 43.2474 16.966C42.7528 16.966 42.3701 17.1247 42.0994 17.442C41.8288 17.7593 41.6794 18.2167 41.6514 18.814C41.6421 18.954 41.6374 19.136 41.6374 19.36C41.6374 19.584 41.6421 19.766 41.6514 19.906C41.6794 20.5127 41.8288 20.9747 42.0994 21.292C42.3701 21.6 42.7528 21.754 43.2474 21.754ZM51.3226 23.14C50.6506 23.14 50.0579 23.014 49.5446 22.762C49.0406 22.51 48.6439 22.146 48.3546 21.67C48.0746 21.1847 47.9206 20.6013 47.8926 19.92C47.8833 19.78 47.8786 19.598 47.8786 19.374C47.8786 19.1407 47.8833 18.9493 47.8926 18.8C47.9206 18.1187 48.0746 17.54 48.3546 17.064C48.6439 16.5787 49.0406 16.21 49.5446 15.958C50.0579 15.706 50.6506 15.58 51.3226 15.58C51.9199 15.58 52.4286 15.664 52.8486 15.832C53.2686 16 53.6139 16.21 53.8846 16.462C54.1553 16.714 54.3559 16.98 54.4866 17.26C54.6266 17.5307 54.7013 17.778 54.7106 18.002C54.7199 18.1047 54.6873 18.1887 54.6126 18.254C54.5473 18.31 54.4679 18.338 54.3746 18.338H53.1426C53.0493 18.338 52.9746 18.3147 52.9186 18.268C52.8719 18.2213 52.8253 18.1513 52.7786 18.058C52.6386 17.6847 52.4519 17.4233 52.2186 17.274C51.9946 17.1153 51.7053 17.036 51.3506 17.036C50.8839 17.036 50.5106 17.1853 50.2306 17.484C49.9599 17.7733 49.8153 18.2353 49.7966 18.87C49.7779 19.2247 49.7779 19.5513 49.7966 19.85C49.8153 20.494 49.9599 20.9607 50.2306 21.25C50.5106 21.5393 50.8839 21.684 51.3506 21.684C51.7146 21.684 52.0086 21.6093 52.2326 21.46C52.4566 21.3013 52.6386 21.0353 52.7786 20.662C52.8253 20.5687 52.8719 20.4987 52.9186 20.452C52.9746 20.4053 53.0493 20.382 53.1426 20.382H54.3746C54.4679 20.382 54.5473 20.4147 54.6126 20.48C54.6873 20.536 54.7199 20.6153 54.7106 20.718C54.7013 20.886 54.6546 21.0773 54.5706 21.292C54.4959 21.4973 54.3699 21.712 54.1926 21.936C54.0246 22.1507 53.8099 22.3513 53.5486 22.538C53.2873 22.7153 52.9699 22.86 52.5966 22.972C52.2326 23.084 51.8079 23.14 51.3226 23.14ZM56.3526 23C56.2686 23 56.194 22.9673 56.1286 22.902C56.0633 22.8367 56.0306 22.762 56.0306 22.678V16.056C56.0306 15.9627 56.0633 15.8833 56.1286 15.818C56.194 15.7527 56.2733 15.72 56.3666 15.72H57.5286C57.6313 15.72 57.7106 15.7527 57.7666 15.818C57.832 15.8833 57.8646 15.9627 57.8646 16.056V21.586L57.3746 21.236L61.2246 15.944C61.2713 15.8787 61.3226 15.8273 61.3786 15.79C61.4346 15.7433 61.5093 15.72 61.6026 15.72H62.6666C62.7506 15.72 62.8253 15.7527 62.8906 15.818C62.956 15.874 62.9886 15.944 62.9886 16.028V22.664C62.9886 22.7573 62.956 22.8367 62.8906 22.902C62.8253 22.9673 62.746 23 62.6526 23H61.4906C61.388 23 61.304 22.9673 61.2386 22.902C61.1826 22.8367 61.1546 22.7573 61.1546 22.664V17.386L61.6726 17.456L57.7946 22.776C57.7573 22.832 57.706 22.8833 57.6406 22.93C57.5846 22.9767 57.51 23 57.4166 23H56.3526ZM66.8393 23C66.7366 23 66.6526 22.9673 66.5873 22.902C66.5313 22.8367 66.5033 22.7573 66.5033 22.664V17.204H64.2213C64.1186 17.204 64.0346 17.1713 63.9693 17.106C63.9133 17.0407 63.8853 16.9613 63.8853 16.868V16.056C63.8853 15.9627 63.9133 15.8833 63.9693 15.818C64.0346 15.7527 64.1186 15.72 64.2213 15.72H70.5773C70.68 15.72 70.764 15.7527 70.8293 15.818C70.8946 15.8833 70.9273 15.9627 70.9273 16.056V16.868C70.9273 16.9613 70.8946 17.0407 70.8293 17.106C70.764 17.1713 70.68 17.204 70.5773 17.204H68.3093V22.664C68.3093 22.7573 68.2766 22.8367 68.2113 22.902C68.146 22.9673 68.0666 23 67.9733 23H66.8393ZM72.2331 23C72.1398 23 72.0605 22.9673 71.9951 22.902C71.9298 22.8367 71.8971 22.7573 71.8971 22.664V16.056C71.8971 15.9627 71.9298 15.8833 71.9951 15.818C72.0605 15.7527 72.1398 15.72 72.2331 15.72H73.4091C73.5025 15.72 73.5818 15.7527 73.6471 15.818C73.7125 15.8833 73.7451 15.9627 73.7451 16.056V18.03H75.1871C76.1391 18.03 76.8531 18.254 77.3291 18.702C77.8051 19.15 78.0431 19.766 78.0431 20.55C78.0431 21.362 77.7865 21.9733 77.2731 22.384C76.7598 22.7947 76.0271 23 75.0751 23H72.2331ZM73.7171 21.67H75.0331C75.4905 21.67 75.8265 21.586 76.0411 21.418C76.2651 21.25 76.3771 20.9607 76.3771 20.55C76.3771 20.1487 76.2698 19.85 76.0551 19.654C75.8498 19.458 75.5091 19.36 75.0331 19.36H73.7171V21.67ZM86.0762 25.66C85.9735 25.66 85.8895 25.6273 85.8242 25.562C85.7682 25.4967 85.7402 25.4173 85.7402 25.324V23C84.9002 23 84.2048 22.874 83.6542 22.622C83.1128 22.3607 82.7022 21.9967 82.4222 21.53C82.1515 21.0633 81.9975 20.5173 81.9602 19.892C81.9415 19.5373 81.9415 19.1827 81.9602 18.828C81.9975 18.2027 82.1562 17.6567 82.4362 17.19C82.7255 16.7233 83.1455 16.364 83.6962 16.112C84.2468 15.8507 84.9282 15.72 85.7402 15.72V13.396C85.7402 13.3027 85.7682 13.2233 85.8242 13.158C85.8895 13.0927 85.9735 13.06 86.0762 13.06H87.2242C87.3268 13.06 87.4062 13.0927 87.4622 13.158C87.5275 13.2233 87.5602 13.3027 87.5602 13.396V15.72C88.3815 15.72 89.0628 15.8507 89.6042 16.112C90.1548 16.364 90.5702 16.7233 90.8502 17.19C91.1395 17.6567 91.2982 18.2027 91.3262 18.828C91.3542 19.1827 91.3542 19.5373 91.3262 19.892C91.2982 20.5173 91.1442 21.0633 90.8642 21.53C90.5935 21.9967 90.1828 22.3607 89.6322 22.622C89.0908 22.874 88.4002 23 87.5602 23V25.324C87.5602 25.4173 87.5275 25.4967 87.4622 25.562C87.4062 25.6273 87.3268 25.66 87.2242 25.66H86.0762ZM85.7402 21.614V17.106C85.0962 17.106 84.6155 17.26 84.2982 17.568C83.9902 17.876 83.8222 18.338 83.7942 18.954C83.7848 19.0847 83.7802 19.2247 83.7802 19.374C83.7802 19.514 83.7848 19.6447 83.7942 19.766C83.8315 20.3913 84.0042 20.858 84.3122 21.166C84.6202 21.4647 85.0962 21.614 85.7402 21.614ZM87.5602 21.614C88.2135 21.614 88.6942 21.46 89.0022 21.152C89.3102 20.844 89.4782 20.382 89.5062 19.766C89.5155 19.6447 89.5202 19.514 89.5202 19.374C89.5202 19.2247 89.5155 19.0847 89.5062 18.954C89.4875 18.3287 89.3148 17.8667 88.9882 17.568C88.6708 17.26 88.1948 17.106 87.5602 17.106V21.614ZM93.0862 23C93.0022 23 92.9276 22.9673 92.8622 22.902C92.7969 22.8367 92.7642 22.762 92.7642 22.678V16.056C92.7642 15.9627 92.7969 15.8833 92.8622 15.818C92.9276 15.7527 93.0069 15.72 93.1002 15.72H94.2622C94.3649 15.72 94.4442 15.7527 94.5002 15.818C94.5656 15.8833 94.5982 15.9627 94.5982 16.056V21.586L94.1082 21.236L97.9582 15.944C98.0049 15.8787 98.0562 15.8273 98.1122 15.79C98.1682 15.7433 98.2429 15.72 98.3362 15.72H99.4002C99.4842 15.72 99.5589 15.7527 99.6242 15.818C99.6896 15.874 99.7222 15.944 99.7222 16.028V22.664C99.7222 22.7573 99.6896 22.8367 99.6242 22.902C99.5589 22.9673 99.4796 23 99.3862 23H98.2242C98.1216 23 98.0376 22.9673 97.9722 22.902C97.9162 22.8367 97.8882 22.7573 97.8882 22.664V17.386L98.4062 17.456L94.5282 22.776C94.4909 22.832 94.4396 22.8833 94.3742 22.93C94.3182 22.9767 94.2436 23 94.1502 23H93.0862ZM101.123 23C101.02 23 100.936 22.9673 100.871 22.902C100.806 22.8367 100.773 22.7527 100.773 22.65V21.782C100.773 21.5767 100.88 21.4647 101.095 21.446C101.375 21.4273 101.599 21.2967 101.767 21.054C101.935 20.8113 102.056 20.438 102.131 19.934C102.206 19.4207 102.243 18.758 102.243 17.946V16.056C102.243 15.9627 102.276 15.8833 102.341 15.818C102.406 15.7527 102.49 15.72 102.593 15.72H107.563C107.656 15.72 107.736 15.7527 107.801 15.818C107.866 15.8833 107.899 15.9627 107.899 16.056V22.664C107.899 22.7573 107.866 22.8367 107.801 22.902C107.736 22.9673 107.656 23 107.563 23H106.401C106.298 23 106.214 22.9673 106.149 22.902C106.093 22.8367 106.065 22.7573 106.065 22.664V17.204H104.007V18.142C104.007 19.038 103.956 19.7987 103.853 20.424C103.76 21.04 103.596 21.5393 103.363 21.922C103.139 22.2953 102.84 22.5707 102.467 22.748C102.103 22.916 101.655 23 101.123 23ZM109.978 23C109.885 23 109.806 22.9673 109.74 22.902C109.675 22.8367 109.642 22.7573 109.642 22.664V16.056C109.642 15.9627 109.675 15.8833 109.74 15.818C109.806 15.7527 109.885 15.72 109.978 15.72H111.154C111.248 15.72 111.327 15.7527 111.392 15.818C111.458 15.8833 111.49 15.9627 111.49 16.056V18.03H112.932C113.884 18.03 114.598 18.254 115.074 18.702C115.55 19.15 115.788 19.766 115.788 20.55C115.788 21.362 115.532 21.9733 115.018 22.384C114.505 22.7947 113.772 23 112.82 23H109.978ZM111.462 21.67H112.778C113.236 21.67 113.572 21.586 113.786 21.418C114.01 21.25 114.122 20.9607 114.122 20.55C114.122 20.1487 114.015 19.85 113.8 19.654C113.595 19.458 113.254 19.36 112.778 19.36H111.462V21.67ZM119.152 23C119.05 23 118.966 22.9673 118.9 22.902C118.844 22.8367 118.816 22.7573 118.816 22.664V17.204H116.534C116.432 17.204 116.348 17.1713 116.282 17.106C116.226 17.0407 116.198 16.9613 116.198 16.868V16.056C116.198 15.9627 116.226 15.8833 116.282 15.818C116.348 15.7527 116.432 15.72 116.534 15.72H122.89C122.993 15.72 123.077 15.7527 123.142 15.818C123.208 15.8833 123.24 15.9627 123.24 16.056V16.868C123.24 16.9613 123.208 17.0407 123.142 17.106C123.077 17.1713 122.993 17.204 122.89 17.204H120.622V22.664C120.622 22.7573 120.59 22.8367 120.524 22.902C120.459 22.9673 120.38 23 120.286 23H119.152ZM124.56 25.66C124.467 25.66 124.387 25.6273 124.322 25.562C124.257 25.4967 124.224 25.4173 124.224 25.324V16.056C124.224 15.9627 124.257 15.8833 124.322 15.818C124.387 15.7527 124.467 15.72 124.56 15.72H125.666C125.769 15.72 125.848 15.7527 125.904 15.818C125.969 15.8833 126.002 15.9627 126.002 16.056V16.616C126.226 16.3173 126.52 16.07 126.884 15.874C127.248 15.678 127.701 15.58 128.242 15.58C128.737 15.58 129.166 15.6593 129.53 15.818C129.894 15.9767 130.197 16.2053 130.44 16.504C130.683 16.7933 130.869 17.1387 131 17.54C131.131 17.9413 131.205 18.3847 131.224 18.87C131.233 19.0287 131.238 19.192 131.238 19.36C131.238 19.528 131.233 19.696 131.224 19.864C131.215 20.3307 131.145 20.7647 131.014 21.166C130.883 21.558 130.692 21.9033 130.44 22.202C130.197 22.4913 129.894 22.72 129.53 22.888C129.166 23.056 128.737 23.14 128.242 23.14C127.738 23.14 127.309 23.0513 126.954 22.874C126.599 22.6873 126.31 22.4447 126.086 22.146V25.324C126.086 25.4173 126.053 25.4967 125.988 25.562C125.932 25.6273 125.853 25.66 125.75 25.66H124.56ZM127.724 21.642C128.125 21.642 128.438 21.558 128.662 21.39C128.886 21.2127 129.045 20.984 129.138 20.704C129.241 20.424 129.301 20.116 129.32 19.78C129.339 19.5 129.339 19.22 129.32 18.94C129.301 18.604 129.241 18.296 129.138 18.016C129.045 17.736 128.886 17.512 128.662 17.344C128.438 17.1667 128.125 17.078 127.724 17.078C127.341 17.078 127.029 17.1667 126.786 17.344C126.553 17.5213 126.38 17.75 126.268 18.03C126.165 18.3007 126.105 18.5807 126.086 18.87C126.077 19.038 126.072 19.2153 126.072 19.402C126.072 19.5887 126.077 19.7707 126.086 19.948C126.095 20.228 126.161 20.4987 126.282 20.76C126.403 21.012 126.581 21.222 126.814 21.39C127.047 21.558 127.351 21.642 127.724 21.642ZM133.006 23C132.912 23 132.833 22.9673 132.768 22.902C132.702 22.8367 132.67 22.7573 132.67 22.664V16.056C132.67 15.9627 132.702 15.8833 132.768 15.818C132.833 15.7527 132.912 15.72 133.006 15.72H134.182C134.275 15.72 134.354 15.7527 134.42 15.818C134.485 15.8833 134.518 15.9627 134.518 16.056V18.03H135.876C136.828 18.03 137.542 18.254 138.018 18.702C138.494 19.15 138.732 19.766 138.732 20.55C138.732 21.362 138.475 21.9733 137.962 22.384C137.458 22.7947 136.725 23 135.764 23H133.006ZM134.49 21.67H135.722C136.179 21.67 136.515 21.586 136.73 21.418C136.954 21.25 137.066 20.9607 137.066 20.55C137.066 20.1487 136.958 19.85 136.744 19.654C136.538 19.458 136.198 19.36 135.722 19.36H134.49V21.67ZM139.992 23C139.898 23 139.819 22.9673 139.754 22.902C139.688 22.8367 139.656 22.7573 139.656 22.664V16.056C139.656 15.9627 139.688 15.8833 139.754 15.818C139.819 15.7527 139.898 15.72 139.992 15.72H141.154C141.256 15.72 141.336 15.7527 141.392 15.818C141.457 15.8833 141.49 15.9627 141.49 16.056V22.664C141.49 22.7573 141.457 22.8367 141.392 22.902C141.336 22.9673 141.256 23 141.154 23H139.992Z" fill="white"/>
<defs>
<linearGradient id="paint0_linear_38_3187" x1="-19.0125" y1="18.5" x2="192.075" y2="18.5" gradientUnits="userSpaceOnUse">
<stop stop-color="#F29D4E"/>
<stop offset="0.427885" stop-color="#E0524E"/>
<stop offset="1" stop-color="#AF407A"/>
</linearGradient>
</defs>
</svg>
