<svg width="24" height="24" viewBox="0 0 24 24" fill="none" xmlns="http://www.w3.org/2000/svg">
<path d="M21.6 12C21.6 6.69807 17.3019 2.4 12 2.4C6.69807 2.4 2.4 6.69807 2.4 12C2.4 17.3019 6.69807 21.6 12 21.6C17.3019 21.6 21.6 17.3019 21.6 12ZM10.8 17.4V12C10.8 11.3373 11.3373 10.8 12 10.8C12.6627 10.8 13.2 11.3373 13.2 12V17.4C13.2 18.0627 12.6627 18.6 12 18.6C11.3373 18.6 10.8 18.0627 10.8 17.4ZM10.8 7.99805V7.95C10.8 7.28726 11.3373 6.75 12 6.75C12.6627 6.75 13.2 7.28726 13.2 7.95V7.99805C13.1997 8.66052 12.6625 9.19805 12 9.19805C11.3375 9.19805 10.8003 8.66052 10.8 7.99805ZM24 12C24 18.6274 18.6274 24 12 24C5.37258 24 -1.74792e-07 18.6274 0 12C5.79387e-07 5.37258 5.37258 1.73107e-07 12 0C18.6274 5.79387e-07 24 5.37258 24 12Z" fill="#7C7C7C"/>
</svg>
