<svg width="174" height="28" viewBox="0 0 174 28" fill="none" xmlns="http://www.w3.org/2000/svg">
<rect width="174" height="28" rx="14" fill="#222222"/>
<g clip-path="url(#clip0_42_1982)">
<path d="M23.1869 9.86358L22.5836 8.87388L22.1447 9.94667C21.7508 10.9095 21.1866 11.4617 20.5967 11.4617C19.4729 11.4618 18.9521 10.0338 18.8185 9.12069C18.6261 7.80597 18.971 6.45838 19.5439 5.2788C19.544 5.27868 20.1651 4 20.1651 4L18.8235 4.47015C16.4272 5.30988 14.4189 6.94942 13.0158 9.21151C11.6472 11.4178 10.9269 14.0939 10.9325 16.9493C10.9325 19.1189 11.7011 20.9471 13.1552 22.2363C14.438 23.3736 16.1586 24 18 24C19.8413 24 21.5619 23.3736 22.8447 22.2363C24.2988 20.9471 25.0674 19.1189 25.0674 16.9493C25.0674 14.1076 24.5226 12.0548 23.1869 9.86358Z" fill="#FF4F19"/>
<path d="M13.0158 9.21148C11.6472 11.4178 10.9269 14.0939 10.9325 16.9493C10.9325 19.1189 11.7011 20.9471 13.1552 22.2363C14.438 23.3736 16.1586 24 18 24V4.79736C15.9663 5.7019 14.255 7.21369 13.0158 9.21148Z" fill="#FF7800"/>
<path d="M21.04 15.7148L20.6864 15.1348L20.4292 15.7635C20.1983 16.3278 19.8676 16.6515 19.5219 16.6515C18.8633 16.6515 18.558 15.8146 18.4797 15.2794C18.367 14.5089 18.5691 13.719 18.9049 13.0277C18.905 13.0276 19.2689 12.2782 19.2689 12.2782L18.4826 12.5537C17.0782 13.0459 15.9011 14.0068 15.0788 15.3326C14.2767 16.6257 13.8545 18.1942 13.8579 19.8677C13.8579 21.1393 14.3083 22.2108 15.1606 22.9663C15.9124 23.6329 16.9208 24 18 24C19.0793 24 20.0877 23.6329 20.8395 22.9663C21.6917 22.2108 22.1422 21.1393 22.1422 19.8677C22.1421 18.2022 21.8228 16.999 21.04 15.7148Z" fill="#FF7800"/>
<path d="M15.0787 15.3326C14.2767 16.6257 13.8545 18.1941 13.8578 19.8676C13.8578 21.1392 14.3083 22.2107 15.1605 22.9663C15.9123 23.6329 16.9207 24 18 24V12.7455C16.8081 13.2756 15.805 14.1617 15.0787 15.3326Z" fill="#FF9900"/>
</g>
<path d="M33.76 19.5C33.6427 19.5 33.552 19.468 33.488 19.404C33.424 19.3293 33.392 19.2387 33.392 19.132V8.684C33.392 8.56667 33.424 8.476 33.488 8.412C33.552 8.33733 33.6427 8.3 33.76 8.3H41.648C41.7653 8.3 41.856 8.33733 41.92 8.412C41.9947 8.476 42.032 8.56667 42.032 8.684V19.132C42.032 19.2387 41.9947 19.3293 41.92 19.404C41.856 19.468 41.7653 19.5 41.648 19.5H40.832C40.7253 19.5 40.6347 19.468 40.56 19.404C40.496 19.3293 40.464 19.2387 40.464 19.132V9.74H34.96V19.132C34.96 19.2387 34.9227 19.3293 34.848 19.404C34.784 19.468 34.6933 19.5 34.576 19.5H33.76ZM47.8383 19.66C47.0276 19.66 46.3503 19.5053 45.8063 19.196C45.2623 18.8867 44.8463 18.46 44.5583 17.916C44.2703 17.3613 44.1103 16.732 44.0783 16.028C44.0676 15.8467 44.0623 15.6173 44.0623 15.34C44.0623 15.052 44.0676 14.8227 44.0783 14.652C44.1103 13.9373 44.2703 13.308 44.5583 12.764C44.8569 12.22 45.2783 11.7933 45.8223 11.484C46.3663 11.1747 47.0383 11.02 47.8383 11.02C48.6383 11.02 49.3103 11.1747 49.8543 11.484C50.3983 11.7933 50.8143 12.22 51.1023 12.764C51.4009 13.308 51.5663 13.9373 51.5983 14.652C51.6089 14.8227 51.6143 15.052 51.6143 15.34C51.6143 15.6173 51.6089 15.8467 51.5983 16.028C51.5663 16.732 51.4063 17.3613 51.1183 17.916C50.8303 18.46 50.4143 18.8867 49.8703 19.196C49.3263 19.5053 48.6489 19.66 47.8383 19.66ZM47.8383 18.428C48.4996 18.428 49.0276 18.22 49.4223 17.804C49.8169 17.3773 50.0303 16.7587 50.0623 15.948C50.0729 15.788 50.0783 15.5853 50.0783 15.34C50.0783 15.0947 50.0729 14.892 50.0623 14.732C50.0303 13.9213 49.8169 13.308 49.4223 12.892C49.0276 12.4653 48.4996 12.252 47.8383 12.252C47.1769 12.252 46.6436 12.4653 46.2383 12.892C45.8436 13.308 45.6356 13.9213 45.6143 14.732C45.6036 14.892 45.5983 15.0947 45.5983 15.34C45.5983 15.5853 45.6036 15.788 45.6143 15.948C45.6356 16.7587 45.8436 17.3773 46.2383 17.804C46.6436 18.22 47.1769 18.428 47.8383 18.428ZM52.9778 21.26C52.8711 21.26 52.7804 21.2227 52.7058 21.148C52.6418 21.084 52.6098 20.9987 52.6098 20.892V18.588C52.6098 18.4813 52.6418 18.396 52.7058 18.332C52.7804 18.2573 52.8711 18.22 52.9778 18.22H53.0578C53.3458 18.2093 53.5911 18.0493 53.7938 17.74C53.9964 17.42 54.1511 16.924 54.2578 16.252C54.3644 15.5693 54.4178 14.684 54.4178 13.596V11.548C54.4178 11.4413 54.4498 11.356 54.5138 11.292C54.5884 11.2173 54.6791 11.18 54.7858 11.18H59.8898C59.9964 11.18 60.0818 11.2173 60.1458 11.292C60.2204 11.356 60.2578 11.4413 60.2578 11.548V18.188H61.0098C61.1271 18.188 61.2178 18.2253 61.2818 18.3C61.3458 18.364 61.3778 18.4493 61.3778 18.556V20.892C61.3778 20.9987 61.3458 21.084 61.2818 21.148C61.2178 21.2227 61.1271 21.26 61.0098 21.26H60.2578C60.1511 21.26 60.0604 21.2227 59.9858 21.148C59.9218 21.084 59.8898 20.9987 59.8898 20.892V19.5H54.0978V20.892C54.0978 20.9987 54.0604 21.084 53.9858 21.148C53.9218 21.2227 53.8364 21.26 53.7298 21.26H52.9778ZM54.9618 18.22L58.7698 18.188V12.46H55.8738V13.772C55.8738 14.9027 55.7938 15.8307 55.6338 16.556C55.4738 17.2707 55.2498 17.8253 54.9618 18.22ZM66.4115 19.66C65.5902 19.66 64.9022 19.5053 64.3475 19.196C63.8035 18.876 63.3875 18.428 63.0995 17.852C62.8222 17.2653 62.6728 16.588 62.6515 15.82C62.6408 15.5 62.6355 15.18 62.6355 14.86C62.6355 14.54 62.6408 14.22 62.6515 13.9C62.6515 12.9293 62.7315 12.124 62.8915 11.484C63.0515 10.844 63.2915 10.3213 63.6115 9.916C63.9422 9.5 64.3582 9.15867 64.8595 8.892C65.3608 8.62533 65.9528 8.396 66.6355 8.204C67.3182 8.00133 68.0968 7.788 68.9715 7.564C69.0675 7.54267 69.1582 7.55867 69.2435 7.612C69.3395 7.66533 69.3928 7.74 69.4035 7.836L69.5315 8.492C69.5528 8.588 69.5368 8.67333 69.4835 8.748C69.4408 8.82267 69.3715 8.87067 69.2755 8.892C68.4755 9.09467 67.7768 9.27067 67.1795 9.42C66.5822 9.56933 66.0808 9.74533 65.6755 9.948C65.2702 10.14 64.9448 10.3907 64.6995 10.7C64.4542 11.0093 64.2835 11.42 64.1875 11.932C64.1022 12.444 64.0755 13.1 64.1075 13.9L63.7555 13.756C63.8088 13.3613 63.9742 13.004 64.2515 12.684C64.5395 12.3533 64.8968 12.0867 65.3235 11.884C65.7502 11.6813 66.2035 11.58 66.6835 11.58C67.4195 11.58 68.0382 11.7347 68.5395 12.044C69.0515 12.3533 69.4408 12.7747 69.7075 13.308C69.9848 13.8413 70.1395 14.4547 70.1715 15.148C70.1928 15.5107 70.1928 15.8253 70.1715 16.092C70.1395 16.7853 69.9795 17.404 69.6915 17.948C69.4035 18.4813 68.9875 18.9027 68.4435 19.212C67.8995 19.5107 67.2222 19.66 66.4115 19.66ZM66.4115 18.476C67.0835 18.476 67.6168 18.268 68.0115 17.852C68.4062 17.436 68.6142 16.828 68.6355 16.028C68.6462 15.9213 68.6515 15.7987 68.6515 15.66C68.6515 15.5213 68.6462 15.3773 68.6355 15.228C68.6142 14.4173 68.4062 13.804 68.0115 13.388C67.6275 12.972 67.1422 12.764 66.5555 12.764C65.8835 12.764 65.3288 12.972 64.8915 13.388C64.4542 13.804 64.2195 14.4173 64.1875 15.228C64.1768 15.3773 64.1715 15.5213 64.1715 15.66C64.1715 15.7987 64.1768 15.9213 64.1875 16.028C64.2195 16.828 64.4328 17.436 64.8275 17.852C65.2222 18.268 65.7502 18.476 66.4115 18.476ZM75.4364 19.66C74.6257 19.66 73.9484 19.5053 73.4044 19.196C72.8604 18.8867 72.4444 18.46 72.1564 17.916C71.8684 17.3613 71.7084 16.732 71.6764 16.028C71.6657 15.8467 71.6604 15.6173 71.6604 15.34C71.6604 15.052 71.6657 14.8227 71.6764 14.652C71.7084 13.9373 71.8684 13.308 72.1564 12.764C72.455 12.22 72.8764 11.7933 73.4204 11.484C73.9644 11.1747 74.6364 11.02 75.4364 11.02C76.2364 11.02 76.9084 11.1747 77.4524 11.484C77.9964 11.7933 78.4124 12.22 78.7004 12.764C78.999 13.308 79.1644 13.9373 79.1964 14.652C79.207 14.8227 79.2124 15.052 79.2124 15.34C79.2124 15.6173 79.207 15.8467 79.1964 16.028C79.1644 16.732 79.0044 17.3613 78.7164 17.916C78.4284 18.46 78.0124 18.8867 77.4684 19.196C76.9244 19.5053 76.247 19.66 75.4364 19.66ZM75.4364 18.428C76.0977 18.428 76.6257 18.22 77.0204 17.804C77.415 17.3773 77.6284 16.7587 77.6604 15.948C77.671 15.788 77.6764 15.5853 77.6764 15.34C77.6764 15.0947 77.671 14.892 77.6604 14.732C77.6284 13.9213 77.415 13.308 77.0204 12.892C76.6257 12.4653 76.0977 12.252 75.4364 12.252C74.775 12.252 74.2417 12.4653 73.8364 12.892C73.4417 13.308 73.2337 13.9213 73.2124 14.732C73.2017 14.892 73.1964 15.0947 73.1964 15.34C73.1964 15.5853 73.2017 15.788 73.2124 15.948C73.2337 16.7587 73.4417 17.3773 73.8364 17.804C74.2417 18.22 74.775 18.428 75.4364 18.428ZM81.4399 22.54C81.3332 22.54 81.2425 22.5027 81.1679 22.428C81.1039 22.364 81.0719 22.2787 81.0719 22.172V11.548C81.0719 11.4413 81.1039 11.356 81.1679 11.292C81.2425 11.2173 81.3332 11.18 81.4399 11.18H82.1759C82.2825 11.18 82.3679 11.2173 82.4319 11.292C82.5065 11.356 82.5439 11.4413 82.5439 11.548V12.252C82.7999 11.9 83.1412 11.6067 83.5679 11.372C83.9945 11.1373 84.5279 11.02 85.1679 11.02C85.7652 11.02 86.2719 11.1213 86.6879 11.324C87.1145 11.5267 87.4612 11.804 87.7279 12.156C88.0052 12.508 88.2132 12.908 88.3519 13.356C88.4905 13.804 88.5652 14.284 88.5759 14.796C88.5865 14.9667 88.5919 15.148 88.5919 15.34C88.5919 15.532 88.5865 15.7133 88.5759 15.884C88.5652 16.3853 88.4905 16.8653 88.3519 17.324C88.2132 17.772 88.0052 18.172 87.7279 18.524C87.4612 18.8653 87.1145 19.1427 86.6879 19.356C86.2719 19.5587 85.7652 19.66 85.1679 19.66C84.5492 19.66 84.0265 19.548 83.5999 19.324C83.1839 19.0893 82.8425 18.8013 82.5759 18.46V22.172C82.5759 22.2787 82.5439 22.364 82.4799 22.428C82.4159 22.5027 82.3252 22.54 82.2079 22.54H81.4399ZM84.8319 18.364C85.3865 18.364 85.8185 18.2467 86.1279 18.012C86.4479 17.7667 86.6772 17.452 86.8159 17.068C86.9545 16.6733 87.0345 16.252 87.0559 15.804C87.0665 15.4947 87.0665 15.1853 87.0559 14.876C87.0345 14.428 86.9545 14.012 86.8159 13.628C86.6772 13.2333 86.4479 12.9187 86.1279 12.684C85.8185 12.4387 85.3865 12.316 84.8319 12.316C84.3092 12.316 83.8825 12.4387 83.5519 12.684C83.2319 12.9293 82.9919 13.244 82.8319 13.628C82.6825 14.0013 82.5972 14.3853 82.5759 14.78C82.5652 14.9507 82.5599 15.1533 82.5599 15.388C82.5599 15.6227 82.5652 15.8307 82.5759 16.012C82.5865 16.3853 82.6719 16.7533 82.8319 17.116C83.0025 17.4787 83.2532 17.7773 83.5839 18.012C83.9145 18.2467 84.3305 18.364 84.8319 18.364ZM90.7951 19.5C90.6885 19.5 90.5978 19.468 90.5231 19.404C90.4591 19.3293 90.4271 19.2387 90.4271 19.132V11.548C90.4271 11.4413 90.4591 11.356 90.5231 11.292C90.5978 11.2173 90.6885 11.18 90.7951 11.18H91.5471C91.6538 11.18 91.7391 11.2173 91.8031 11.292C91.8778 11.356 91.9151 11.4413 91.9151 11.548V14.62H93.3711L95.5311 11.42C95.5845 11.3453 95.6431 11.2867 95.7071 11.244C95.7711 11.2013 95.8565 11.18 95.9631 11.18H96.7951C96.8911 11.18 96.9711 11.2013 97.0351 11.244C97.0991 11.2867 97.1311 11.3507 97.1311 11.436C97.1311 11.4573 97.1205 11.4893 97.0991 11.532C97.0885 11.564 97.0725 11.596 97.0511 11.628L94.6511 15.164L97.3711 19.036C97.4245 19.1 97.4511 19.1693 97.4511 19.244C97.4511 19.3293 97.4191 19.3933 97.3551 19.436C97.3018 19.4787 97.2271 19.5 97.1311 19.5H96.1551C96.0591 19.5 95.9791 19.4787 95.9151 19.436C95.8511 19.3933 95.7925 19.3347 95.7391 19.26L93.3871 15.916H91.9151V19.132C91.9151 19.2387 91.8778 19.3293 91.8031 19.404C91.7391 19.468 91.6538 19.5 91.5471 19.5H90.7951ZM101.165 19.66C100.632 19.66 100.147 19.5533 99.7092 19.34C99.2719 19.1267 98.9199 18.8387 98.6532 18.476C98.3866 18.1133 98.2532 17.7027 98.2532 17.244C98.2532 16.508 98.5519 15.9213 99.1492 15.484C99.7466 15.0467 100.525 14.7587 101.485 14.62L103.869 14.284V13.82C103.869 13.308 103.72 12.908 103.421 12.62C103.133 12.332 102.659 12.188 101.997 12.188C101.517 12.188 101.128 12.284 100.829 12.476C100.541 12.668 100.339 12.9133 100.221 13.212C100.157 13.372 100.045 13.452 99.8852 13.452H99.1652C99.0479 13.452 98.9572 13.42 98.8932 13.356C98.8399 13.2813 98.8132 13.196 98.8132 13.1C98.8132 12.94 98.8719 12.7427 98.9892 12.508C99.1172 12.2733 99.3092 12.044 99.5652 11.82C99.8212 11.596 100.147 11.4093 100.541 11.26C100.947 11.1 101.437 11.02 102.013 11.02C102.653 11.02 103.192 11.1053 103.629 11.276C104.067 11.436 104.408 11.6547 104.653 11.932C104.909 12.2093 105.091 12.524 105.197 12.876C105.315 13.228 105.373 13.5853 105.373 13.948V19.132C105.373 19.2387 105.336 19.3293 105.261 19.404C105.197 19.468 105.112 19.5 105.005 19.5H104.269C104.152 19.5 104.061 19.468 103.997 19.404C103.933 19.3293 103.901 19.2387 103.901 19.132V18.444C103.763 18.636 103.576 18.828 103.341 19.02C103.107 19.2013 102.813 19.356 102.461 19.484C102.109 19.6013 101.677 19.66 101.165 19.66ZM101.501 18.46C101.939 18.46 102.339 18.3693 102.701 18.188C103.064 17.996 103.347 17.7027 103.549 17.308C103.763 16.9133 103.869 16.4173 103.869 15.82V15.372L102.013 15.644C101.256 15.7507 100.685 15.932 100.301 16.188C99.9172 16.4333 99.7252 16.748 99.7252 17.132C99.7252 17.4307 99.8106 17.6813 99.9812 17.884C100.163 18.076 100.387 18.22 100.653 18.316C100.931 18.412 101.213 18.46 101.501 18.46ZM111.643 19.5C111.537 19.5 111.446 19.468 111.371 19.404C111.307 19.3293 111.275 19.2387 111.275 19.132V11.548C111.275 11.4413 111.307 11.356 111.371 11.292C111.446 11.2173 111.537 11.18 111.643 11.18H112.411C112.518 11.18 112.603 11.2173 112.667 11.292C112.731 11.356 112.763 11.4413 112.763 11.548V14.62H117.131V11.548C117.131 11.4413 117.163 11.356 117.227 11.292C117.302 11.2173 117.393 11.18 117.499 11.18H118.251C118.358 11.18 118.443 11.2173 118.507 11.292C118.582 11.356 118.619 11.4413 118.619 11.548V19.132C118.619 19.2387 118.582 19.3293 118.507 19.404C118.443 19.468 118.358 19.5 118.251 19.5H117.499C117.393 19.5 117.302 19.468 117.227 19.404C117.163 19.3293 117.131 19.2387 117.131 19.132V15.9H112.763V19.132C112.763 19.2387 112.731 19.3293 112.667 19.404C112.603 19.468 112.518 19.5 112.411 19.5H111.643ZM124.177 19.66C123.079 19.66 122.204 19.324 121.553 18.652C120.903 17.9693 120.545 17.0413 120.481 15.868C120.471 15.7293 120.465 15.5533 120.465 15.34C120.465 15.116 120.471 14.9347 120.481 14.796C120.524 14.0387 120.7 13.3773 121.009 12.812C121.319 12.236 121.74 11.7933 122.273 11.484C122.817 11.1747 123.452 11.02 124.177 11.02C124.988 11.02 125.665 11.1907 126.209 11.532C126.764 11.8733 127.185 12.3587 127.473 12.988C127.761 13.6173 127.905 14.3533 127.905 15.196V15.468C127.905 15.5853 127.868 15.676 127.793 15.74C127.729 15.804 127.644 15.836 127.537 15.836H122.001C122.001 15.8467 122.001 15.868 122.001 15.9C122.001 15.932 122.001 15.9587 122.001 15.98C122.023 16.4173 122.119 16.828 122.289 17.212C122.46 17.5853 122.705 17.8893 123.025 18.124C123.345 18.3587 123.729 18.476 124.177 18.476C124.561 18.476 124.881 18.4173 125.137 18.3C125.393 18.1827 125.601 18.0547 125.761 17.916C125.921 17.7667 126.028 17.6547 126.081 17.58C126.177 17.4413 126.252 17.3613 126.305 17.34C126.359 17.308 126.444 17.292 126.561 17.292H127.329C127.436 17.292 127.521 17.324 127.585 17.388C127.66 17.4413 127.692 17.5213 127.681 17.628C127.671 17.788 127.585 17.9853 127.425 18.22C127.265 18.444 127.036 18.668 126.737 18.892C126.439 19.116 126.076 19.3027 125.649 19.452C125.223 19.5907 124.732 19.66 124.177 19.66ZM122.001 14.732H126.385V14.684C126.385 14.204 126.295 13.7773 126.113 13.404C125.943 13.0307 125.692 12.7373 125.361 12.524C125.031 12.3 124.636 12.188 124.177 12.188C123.719 12.188 123.324 12.3 122.993 12.524C122.673 12.7373 122.428 13.0307 122.257 13.404C122.087 13.7773 122.001 14.204 122.001 14.684V14.732ZM129.178 21.26C129.072 21.26 128.981 21.2227 128.906 21.148C128.842 21.084 128.81 20.9987 128.81 20.892V18.588C128.81 18.4813 128.842 18.396 128.906 18.332C128.981 18.2573 129.072 18.22 129.178 18.22H129.258C129.546 18.2093 129.792 18.0493 129.994 17.74C130.197 17.42 130.352 16.924 130.458 16.252C130.565 15.5693 130.618 14.684 130.618 13.596V11.548C130.618 11.4413 130.65 11.356 130.714 11.292C130.789 11.2173 130.88 11.18 130.986 11.18H136.09C136.197 11.18 136.282 11.2173 136.346 11.292C136.421 11.356 136.458 11.4413 136.458 11.548V18.188H137.21C137.328 18.188 137.418 18.2253 137.482 18.3C137.546 18.364 137.578 18.4493 137.578 18.556V20.892C137.578 20.9987 137.546 21.084 137.482 21.148C137.418 21.2227 137.328 21.26 137.21 21.26H136.458C136.352 21.26 136.261 21.2227 136.186 21.148C136.122 21.084 136.09 20.9987 136.09 20.892V19.5H130.298V20.892C130.298 20.9987 130.261 21.084 130.186 21.148C130.122 21.2227 130.037 21.26 129.93 21.26H129.178ZM131.162 18.22L134.97 18.188V12.46H132.074V13.772C132.074 14.9027 131.994 15.8307 131.834 16.556C131.674 17.2707 131.45 17.8253 131.162 18.22ZM142.404 19.66C141.305 19.66 140.431 19.324 139.78 18.652C139.129 17.9693 138.772 17.0413 138.708 15.868C138.697 15.7293 138.692 15.5533 138.692 15.34C138.692 15.116 138.697 14.9347 138.708 14.796C138.751 14.0387 138.927 13.3773 139.236 12.812C139.545 12.236 139.967 11.7933 140.5 11.484C141.044 11.1747 141.679 11.02 142.404 11.02C143.215 11.02 143.892 11.1907 144.436 11.532C144.991 11.8733 145.412 12.3587 145.7 12.988C145.988 13.6173 146.132 14.3533 146.132 15.196V15.468C146.132 15.5853 146.095 15.676 146.02 15.74C145.956 15.804 145.871 15.836 145.764 15.836H140.228C140.228 15.8467 140.228 15.868 140.228 15.9C140.228 15.932 140.228 15.9587 140.228 15.98C140.249 16.4173 140.345 16.828 140.516 17.212C140.687 17.5853 140.932 17.8893 141.252 18.124C141.572 18.3587 141.956 18.476 142.404 18.476C142.788 18.476 143.108 18.4173 143.364 18.3C143.62 18.1827 143.828 18.0547 143.988 17.916C144.148 17.7667 144.255 17.6547 144.308 17.58C144.404 17.4413 144.479 17.3613 144.532 17.34C144.585 17.308 144.671 17.292 144.788 17.292H145.556C145.663 17.292 145.748 17.324 145.812 17.388C145.887 17.4413 145.919 17.5213 145.908 17.628C145.897 17.788 145.812 17.9853 145.652 18.22C145.492 18.444 145.263 18.668 144.964 18.892C144.665 19.116 144.303 19.3027 143.876 19.452C143.449 19.5907 142.959 19.66 142.404 19.66ZM140.228 14.732H144.612V14.684C144.612 14.204 144.521 13.7773 144.34 13.404C144.169 13.0307 143.919 12.7373 143.588 12.524C143.257 12.3 142.863 12.188 142.404 12.188C141.945 12.188 141.551 12.3 141.22 12.524C140.9 12.7373 140.655 13.0307 140.484 13.404C140.313 13.7773 140.228 14.204 140.228 14.684V14.732ZM147.423 19.5C147.316 19.5 147.225 19.4627 147.151 19.388C147.076 19.3133 147.039 19.2227 147.039 19.116V18.524C147.039 18.3 147.151 18.1827 147.375 18.172C147.705 18.1613 147.983 18.0067 148.207 17.708C148.431 17.3987 148.601 16.9133 148.719 16.252C148.836 15.58 148.895 14.6947 148.895 13.596V11.548C148.895 11.4413 148.927 11.356 148.991 11.292C149.065 11.2173 149.156 11.18 149.263 11.18H154.351C154.457 11.18 154.543 11.2173 154.607 11.292C154.681 11.356 154.719 11.4413 154.719 11.548V19.132C154.719 19.2387 154.681 19.3293 154.607 19.404C154.543 19.468 154.457 19.5 154.351 19.5H153.583C153.476 19.5 153.391 19.468 153.327 19.404C153.263 19.3293 153.231 19.2387 153.231 19.132V12.46H150.351V13.772C150.351 14.796 150.292 15.676 150.175 16.412C150.057 17.1373 149.876 17.7293 149.631 18.188C149.396 18.636 149.092 18.9667 148.719 19.18C148.356 19.3933 147.924 19.5 147.423 19.5ZM157.296 19.5C157.2 19.5 157.115 19.468 157.04 19.404C156.976 19.3293 156.944 19.2493 156.944 19.164V11.548C156.944 11.4413 156.976 11.356 157.04 11.292C157.115 11.2173 157.205 11.18 157.312 11.18H158.08C158.187 11.18 158.272 11.2173 158.336 11.292C158.4 11.356 158.432 11.4413 158.432 11.548V18.332L158.016 17.9L162.864 11.42C162.917 11.356 162.976 11.3027 163.04 11.26C163.104 11.2067 163.184 11.18 163.28 11.18H164.016C164.101 11.18 164.176 11.212 164.24 11.276C164.315 11.34 164.352 11.4147 164.352 11.5V19.132C164.352 19.2387 164.315 19.3293 164.24 19.404C164.176 19.468 164.091 19.5 163.984 19.5H163.232C163.115 19.5 163.024 19.468 162.96 19.404C162.896 19.3293 162.864 19.2387 162.864 19.132V12.748L163.312 12.732L158.432 19.26C158.389 19.3133 158.336 19.3667 158.272 19.42C158.208 19.4733 158.123 19.5 158.016 19.5H157.296Z" fill="url(#paint0_linear_42_1982)"/>
<defs>
<linearGradient id="paint0_linear_42_1982" x1="15.6688" y1="14" x2="196.988" y2="14" gradientUnits="userSpaceOnUse">
<stop stop-color="#F29D4E"/>
<stop offset="0.427885" stop-color="#E0524E"/>
<stop offset="1" stop-color="#AF407A"/>
</linearGradient>
<clipPath id="clip0_42_1982">
<rect width="20" height="20" fill="white" transform="translate(8 4)"/>
</clipPath>
</defs>
</svg>
