<svg width="187" height="64" viewBox="0 0 187 64" fill="none" xmlns="http://www.w3.org/2000/svg">
<g filter="url(#filter0_dd_63_6042)">
<rect x="7" y="7" width="165" height="42" rx="21" fill="url(#paint0_linear_63_6042)" shape-rendering="crispEdges"/>
<path d="M43.0636 32.4286L43.1206 32.3659C43.3877 32.0385 43.3688 31.5553 43.0636 31.2501C42.7584 30.9452 42.2756 30.9266 41.9484 31.1937L41.8851 31.2501L40.0235 33.1116C39.5229 33.6122 38.87 33.9007 38.1326 33.9299L37.9841 33.9322C37.2069 33.9265 36.4705 33.6226 35.9252 33.0599L35.9068 33.0414C35.3439 32.496 35.0395 31.7593 35.0338 30.9819L35.0361 30.8392C35.0673 30.1261 35.3699 29.4501 35.8774 28.9425L37.7384 27.0816L37.796 27.0183C38.0629 26.6909 38.0435 26.2081 37.7384 25.903C37.4333 25.5979 36.9505 25.5785 36.6232 25.8455L36.5599 25.903L34.6989 27.764C33.903 28.5599 33.421 29.6282 33.3714 30.7661L33.3673 30.9946C33.3763 32.2052 33.854 33.3721 34.7473 34.2378C35.6111 35.1191 36.7701 35.5905 37.972 35.5993L38.2028 35.5953C39.3483 35.5488 40.3993 35.0927 41.202 34.2902L43.0636 32.4286ZM47.3023 28.2359C48.1512 27.387 48.6429 26.228 48.6339 25.0053L48.6264 24.7792C48.5636 23.6545 48.0949 22.5819 47.2632 21.7713L47.098 21.6143C46.3112 20.9019 45.3074 20.4897 44.2553 20.4311L44.0292 20.4237C42.8953 20.4153 41.8025 20.8183 40.9632 21.5757L40.7986 21.7322L38.9376 23.5932C38.6123 23.9186 38.6124 24.4463 38.9376 24.7717C39.2631 25.0972 39.7907 25.0972 40.1162 24.7717L41.9771 22.9107L42.0796 22.8141C42.6008 22.3435 43.287 22.0849 44.0165 22.0901L44.1627 22.0947C44.8878 22.1351 45.571 22.4362 46.0847 22.9499C46.0877 22.9529 46.0908 22.9561 46.0939 22.9591L46.1969 23.0632C46.6611 23.5609 46.9253 24.1977 46.9628 24.873L46.9674 25.018C46.973 25.7833 46.6651 26.5161 46.1238 27.0574L44.2628 28.9184C43.9374 29.2438 43.9374 29.7714 44.2628 30.0969C44.5882 30.4223 45.1159 30.4223 45.4413 30.0969L47.3023 28.2359ZM44.3509 25.7782L44.4084 25.7149C44.6752 25.3876 44.6559 24.9047 44.3509 24.5997C44.0458 24.2948 43.5635 24.2759 43.2362 24.5427L43.1723 24.5997L37.5888 30.1832C37.2634 30.5086 37.2635 31.0363 37.5888 31.3617C37.9142 31.6872 38.4419 31.6872 38.7673 31.3617L44.3509 25.7782Z" fill="white"/>
<path d="M57.1148 33C57.0081 33 56.9175 32.968 56.8428 32.904C56.7681 32.8293 56.7308 32.7333 56.7308 32.616V22.2C56.7308 22.0827 56.7681 21.9867 56.8428 21.912C56.9175 21.8373 57.0081 21.8 57.1148 21.8H65.4988C65.6161 21.8 65.7121 21.8373 65.7868 21.912C65.8615 21.9867 65.8988 22.0827 65.8988 22.2V32.616C65.8988 32.7227 65.8615 32.8133 65.7868 32.888C65.7121 32.9627 65.6161 33 65.4988 33H64.0588C63.9521 33 63.8615 32.9627 63.7868 32.888C63.7121 32.8133 63.6748 32.7227 63.6748 32.616V23.8H58.9548V32.616C58.9548 32.7227 58.9175 32.8133 58.8428 32.888C58.7788 32.9627 58.6881 33 58.5708 33H57.1148ZM71.5551 33.16C70.7017 33.16 69.9817 33.0107 69.3951 32.712C68.8191 32.4133 68.3764 31.992 68.0671 31.448C67.7684 30.904 67.5977 30.2693 67.5551 29.544C67.5444 29.352 67.5391 29.1173 67.5391 28.84C67.5391 28.5627 67.5444 28.328 67.5551 28.136C67.5977 27.4 67.7737 26.7653 68.0831 26.232C68.4031 25.688 68.8511 25.2667 69.4271 24.968C70.0137 24.6693 70.7231 24.52 71.5551 24.52C72.3871 24.52 73.0911 24.6693 73.6671 24.968C74.2537 25.2667 74.7017 25.688 75.0111 26.232C75.3311 26.7653 75.5124 27.4 75.5551 28.136C75.5657 28.328 75.5711 28.5627 75.5711 28.84C75.5711 29.1173 75.5657 29.352 75.5551 29.544C75.5124 30.2693 75.3364 30.904 75.0271 31.448C74.7284 31.992 74.2857 32.4133 73.6991 32.712C73.1231 33.0107 72.4084 33.16 71.5551 33.16ZM71.5551 31.576C72.1204 31.576 72.5577 31.4 72.8671 31.048C73.1764 30.6853 73.3471 30.1573 73.3791 29.464C73.3897 29.304 73.3951 29.096 73.3951 28.84C73.3951 28.584 73.3897 28.376 73.3791 28.216C73.3471 27.5333 73.1764 27.0107 72.8671 26.648C72.5577 26.2853 72.1204 26.104 71.5551 26.104C70.9897 26.104 70.5524 26.2853 70.2431 26.648C69.9337 27.0107 69.7631 27.5333 69.7311 28.216C69.7204 28.376 69.7151 28.584 69.7151 28.84C69.7151 29.096 69.7204 29.304 69.7311 29.464C69.7631 30.1573 69.9337 30.6853 70.2431 31.048C70.5524 31.4 70.9897 31.576 71.5551 31.576ZM76.7038 34.76C76.5971 34.76 76.5065 34.7227 76.4318 34.648C76.3571 34.5733 76.3198 34.4827 76.3198 34.376V31.688C76.3198 31.5813 76.3571 31.4907 76.4318 31.416C76.5065 31.3413 76.5971 31.304 76.7038 31.304H76.8318C77.1091 31.304 77.3331 31.16 77.5038 30.872C77.6851 30.5733 77.8185 30.1253 77.9038 29.528C77.9891 28.92 78.0318 28.152 78.0318 27.224V25.064C78.0318 24.9573 78.0691 24.8667 78.1438 24.792C78.2185 24.7173 78.3091 24.68 78.4158 24.68H84.1118C84.2291 24.68 84.3198 24.7173 84.3838 24.792C84.4585 24.8667 84.4958 24.9573 84.4958 25.064V31.288H85.2158C85.3331 31.288 85.4238 31.3253 85.4878 31.4C85.5625 31.4747 85.5998 31.5653 85.5998 31.672V34.376C85.5998 34.4827 85.5625 34.5733 85.4878 34.648C85.4238 34.7227 85.3331 34.76 85.2158 34.76H83.8878C83.7811 34.76 83.6905 34.7227 83.6158 34.648C83.5411 34.5733 83.5038 34.4827 83.5038 34.376V33H78.4158V34.376C78.4158 34.4827 78.3785 34.5733 78.3038 34.648C78.2291 34.7227 78.1385 34.76 78.0318 34.76H76.7038ZM79.2958 31.304L82.3998 31.288V26.376H80.0478V27.448C80.0478 28.408 79.9838 29.2027 79.8558 29.832C79.7278 30.4613 79.5411 30.952 79.2958 31.304ZM90.3347 33.16C89.1507 33.16 88.212 32.8187 87.5187 32.136C86.8254 31.4533 86.452 30.4827 86.3987 29.224C86.388 29.1173 86.3827 28.984 86.3827 28.824C86.3827 28.6533 86.388 28.52 86.3987 28.424C86.4414 27.624 86.6227 26.9307 86.9427 26.344C87.2734 25.7573 87.7267 25.3093 88.3027 25C88.8787 24.68 89.556 24.52 90.3347 24.52C91.1987 24.52 91.924 24.7013 92.5107 25.064C93.0974 25.416 93.54 25.912 93.8387 26.552C94.1374 27.1813 94.2867 27.912 94.2867 28.744V29.08C94.2867 29.1867 94.2494 29.2773 94.1747 29.352C94.1 29.4267 94.004 29.464 93.8867 29.464H88.5747C88.5747 29.464 88.5747 29.48 88.5747 29.512C88.5747 29.544 88.5747 29.5707 88.5747 29.592C88.5854 29.9653 88.6547 30.312 88.7827 30.632C88.9214 30.9413 89.1187 31.192 89.3747 31.384C89.6414 31.576 89.956 31.672 90.3187 31.672C90.6174 31.672 90.868 31.6293 91.0707 31.544C91.2734 31.448 91.4387 31.3413 91.5667 31.224C91.6947 31.1067 91.7854 31.0107 91.8387 30.936C91.9347 30.808 92.0094 30.7333 92.0627 30.712C92.1267 30.68 92.2174 30.664 92.3347 30.664H93.7107C93.8174 30.664 93.9027 30.696 93.9667 30.76C94.0414 30.824 94.0734 30.904 94.0627 31C94.052 31.1707 93.9614 31.3787 93.7907 31.624C93.6307 31.8693 93.396 32.1093 93.0867 32.344C92.7774 32.5787 92.388 32.776 91.9187 32.936C91.46 33.0853 90.932 33.16 90.3347 33.16ZM88.5747 28.12H92.1107V28.072C92.1107 27.656 92.0414 27.2933 91.9027 26.984C91.764 26.6747 91.5614 26.4293 91.2947 26.248C91.028 26.0667 90.708 25.976 90.3347 25.976C89.9614 25.976 89.6414 26.0667 89.3747 26.248C89.108 26.4293 88.9054 26.6747 88.7667 26.984C88.6387 27.2933 88.5747 27.656 88.5747 28.072V28.12ZM95.3309 33C95.2136 33 95.1176 32.9627 95.0429 32.888C94.9683 32.8133 94.9309 32.7173 94.9309 32.6V31.608C94.9309 31.3733 95.0536 31.2453 95.2989 31.224C95.6189 31.2027 95.8749 31.0533 96.0669 30.776C96.2589 30.4987 96.3976 30.072 96.4829 29.496C96.5683 28.9093 96.6109 28.152 96.6109 27.224V25.064C96.6109 24.9573 96.6483 24.8667 96.7229 24.792C96.7976 24.7173 96.8936 24.68 97.0109 24.68H102.691C102.798 24.68 102.888 24.7173 102.963 24.792C103.038 24.8667 103.075 24.9573 103.075 25.064V32.616C103.075 32.7227 103.038 32.8133 102.963 32.888C102.888 32.9627 102.798 33 102.691 33H101.363C101.246 33 101.15 32.9627 101.075 32.888C101.011 32.8133 100.979 32.7227 100.979 32.616V26.376H98.6269V27.448C98.6269 28.472 98.5683 29.3413 98.4509 30.056C98.3443 30.76 98.1576 31.3307 97.8909 31.768C97.6349 32.1947 97.2936 32.5093 96.8669 32.712C96.4509 32.904 95.9389 33 95.3309 33ZM105.276 33C105.18 33 105.094 32.9627 105.02 32.888C104.945 32.8133 104.908 32.728 104.908 32.632V25.064C104.908 24.9573 104.945 24.8667 105.02 24.792C105.094 24.7173 105.185 24.68 105.292 24.68H106.62C106.737 24.68 106.828 24.7173 106.892 24.792C106.966 24.8667 107.004 24.9573 107.004 25.064V31.384L106.444 30.984L110.844 24.936C110.897 24.8613 110.956 24.8027 111.02 24.76C111.084 24.7067 111.169 24.68 111.276 24.68H112.492C112.588 24.68 112.673 24.7173 112.748 24.792C112.822 24.856 112.86 24.936 112.86 25.032V32.616C112.86 32.7227 112.822 32.8133 112.748 32.888C112.673 32.9627 112.582 33 112.476 33H111.148C111.03 33 110.934 32.9627 110.86 32.888C110.796 32.8133 110.764 32.7227 110.764 32.616V26.584L111.356 26.664L106.924 32.744C106.881 32.808 106.822 32.8667 106.748 32.92C106.684 32.9733 106.598 33 106.492 33H105.276ZM117.1 33C116.983 33 116.887 32.9627 116.812 32.888C116.748 32.8133 116.716 32.7227 116.716 32.616V26.376H114.108C113.991 26.376 113.895 26.3387 113.82 26.264C113.756 26.1893 113.724 26.0987 113.724 25.992V25.064C113.724 24.9573 113.756 24.8667 113.82 24.792C113.895 24.7173 113.991 24.68 114.108 24.68H121.372C121.49 24.68 121.586 24.7173 121.66 24.792C121.735 24.8667 121.772 24.9573 121.772 25.064V25.992C121.772 26.0987 121.735 26.1893 121.66 26.264C121.586 26.3387 121.49 26.376 121.372 26.376H118.78V32.616C118.78 32.7227 118.743 32.8133 118.668 32.888C118.594 32.9627 118.503 33 118.396 33H117.1ZM123.105 33C122.998 33 122.907 32.9627 122.833 32.888C122.758 32.8133 122.721 32.7227 122.721 32.616V25.064C122.721 24.9573 122.758 24.8667 122.833 24.792C122.907 24.7173 122.998 24.68 123.105 24.68H124.449C124.555 24.68 124.646 24.7173 124.721 24.792C124.795 24.8667 124.833 24.9573 124.833 25.064V27.32H126.481C127.569 27.32 128.385 27.576 128.929 28.088C129.473 28.6 129.745 29.304 129.745 30.2C129.745 31.128 129.451 31.8267 128.865 32.296C128.278 32.7653 127.441 33 126.353 33H123.105ZM124.801 31.48H126.305C126.827 31.48 127.211 31.384 127.457 31.192C127.713 31 127.841 30.6693 127.841 30.2C127.841 29.7413 127.718 29.4 127.473 29.176C127.238 28.952 126.849 28.84 126.305 28.84H124.801V31.48ZM134.485 33.16C133.717 33.16 133.04 33.016 132.453 32.728C131.877 32.44 131.424 32.024 131.093 31.48C130.773 30.9253 130.597 30.2587 130.565 29.48C130.554 29.32 130.549 29.112 130.549 28.856C130.549 28.5893 130.554 28.3707 130.565 28.2C130.597 27.4213 130.773 26.76 131.093 26.216C131.424 25.6613 131.877 25.24 132.453 24.952C133.04 24.664 133.717 24.52 134.485 24.52C135.168 24.52 135.749 24.616 136.229 24.808C136.709 25 137.104 25.24 137.413 25.528C137.722 25.816 137.952 26.12 138.101 26.44C138.261 26.7493 138.346 27.032 138.357 27.288C138.368 27.4053 138.33 27.5013 138.245 27.576C138.17 27.64 138.08 27.672 137.973 27.672H136.565C136.458 27.672 136.373 27.6453 136.309 27.592C136.256 27.5387 136.202 27.4587 136.149 27.352C135.989 26.9253 135.776 26.6267 135.509 26.456C135.253 26.2747 134.922 26.184 134.517 26.184C133.984 26.184 133.557 26.3547 133.237 26.696C132.928 27.0267 132.762 27.5547 132.741 28.28C132.72 28.6853 132.72 29.0587 132.741 29.4C132.762 30.136 132.928 30.6693 133.237 31C133.557 31.3307 133.984 31.496 134.517 31.496C134.933 31.496 135.269 31.4107 135.525 31.24C135.781 31.0587 135.989 30.7547 136.149 30.328C136.202 30.2213 136.256 30.1413 136.309 30.088C136.373 30.0347 136.458 30.008 136.565 30.008H137.973C138.08 30.008 138.17 30.0453 138.245 30.12C138.33 30.184 138.368 30.2747 138.357 30.392C138.346 30.584 138.293 30.8027 138.197 31.048C138.112 31.2827 137.968 31.528 137.765 31.784C137.573 32.0293 137.328 32.2587 137.029 32.472C136.73 32.6747 136.368 32.84 135.941 32.968C135.525 33.096 135.04 33.16 134.485 33.16ZM144.986 33C144.868 33 144.772 32.9627 144.698 32.888C144.634 32.8133 144.602 32.7227 144.602 32.616V30.168H143.018V30.088C141.94 30.088 141.13 29.8427 140.586 29.352C140.052 28.8507 139.786 28.1947 139.786 27.384C139.786 26.488 140.068 25.816 140.634 25.368C141.199 24.9093 142.015 24.68 143.082 24.68H146.346C146.452 24.68 146.543 24.7173 146.618 24.792C146.692 24.8667 146.73 24.9573 146.73 25.064V32.616C146.73 32.7227 146.692 32.8133 146.618 32.888C146.543 32.9627 146.452 33 146.346 33H144.986ZM139.866 33C139.77 33 139.69 32.968 139.626 32.904C139.562 32.84 139.53 32.7653 139.53 32.68C139.53 32.648 139.535 32.6107 139.546 32.568C139.556 32.5147 139.583 32.4667 139.626 32.424L141.418 29.608L143.37 29.864L141.594 32.76C141.562 32.824 141.508 32.8827 141.434 32.936C141.359 32.9787 141.279 33 141.194 33H139.866ZM143.034 28.648H144.634V26.2H143.13C142.639 26.2 142.276 26.2907 142.042 26.472C141.807 26.6427 141.69 26.9467 141.69 27.384C141.69 27.7573 141.796 28.0613 142.01 28.296C142.234 28.5307 142.575 28.648 143.034 28.648Z" fill="white"/>
</g>
<g filter="url(#filter1_d_63_6042)">
<path d="M177.333 43.5L167 40.1666C166 40 164.833 40.1666 164 41C163.167 41.8333 162.833 42.8333 163.167 44.1666L166.5 54.1666C166.667 55 167.333 55.8333 168.333 55.8333H168.5C169.333 55.8333 170.167 55.3333 170.333 54.5L172.5 49.6666C172.5 49.5 172.667 49.5 172.667 49.5L177.333 47.3333C178.167 47 178.833 46.1666 178.667 45.1666C178.833 44.5 178.167 43.6666 177.333 43.5ZM171.833 47.3333C171.167 47.6666 170.667 48.1666 170.333 48.8333L168.667 52.6666L165.667 43.5C165.667 43.3333 165.667 43 165.833 42.8333C166 42.6666 166.167 42.6666 166.333 42.6666L175.667 45.6666L171.833 47.3333ZM169.333 36.9999C168.833 36.4999 168.833 35.6665 169.333 35.1665L171.167 33.3332C171.667 32.8332 172.5 32.8332 173 33.3332C173.5 33.8332 173.5 34.6665 173 35.1665L171 36.9999C170.5 37.4999 169.833 37.4999 169.333 36.9999ZM163.5 33.9999V31.3332C163.5 30.6665 164 29.9999 164.833 29.9999C165.667 29.9999 166 30.6665 166 31.3332V33.9999C166 34.6665 165.5 35.3332 164.667 35.3332C163.833 35.3332 163.5 34.6665 163.5 33.9999ZM160 35.3332C160.5 35.8332 160.5 36.6665 160 37.1665C159.5 37.6665 158.667 37.6665 158.167 37.1665L156.5 35.3332C156 34.8332 156 33.9999 156.5 33.4999C157 32.9999 157.833 32.9999 158.167 33.4999L160 35.3332ZM160 46.3333C160.5 46.8333 160.5 47.6666 160 48.1666L158.167 50C157.667 50.5 156.833 50.5 156.333 50C155.833 49.5 155.833 48.6666 156.333 48.1666L158.333 46.3333C158.833 45.8333 159.667 45.8333 160 46.3333ZM157 43H154.333C153.667 43 153 42.5 153 41.6666C153 41 153.5 40.3333 154.333 40.3333H157C157.667 40.3333 158.333 40.8333 158.333 41.6666C158.167 42.3333 157.667 43 157 43Z" fill="white"/>
<path d="M163.93 40.9296C164.739 40.1201 165.847 39.9214 166.823 40.0399L167.017 40.0682L167.023 40.0692L167.03 40.0712L177.364 43.4052C177.802 43.4958 178.192 43.7569 178.453 44.0829C178.71 44.4035 178.849 44.7998 178.768 45.1669C178.934 46.2161 178.232 47.0776 177.374 47.4227L177.375 47.4237L172.709 49.5907L172.688 49.5995H172.668L172.667 49.6005C172.665 49.6006 172.661 49.6007 172.657 49.6014C172.648 49.603 172.637 49.6055 172.628 49.6102C172.619 49.6147 172.613 49.62 172.609 49.6259C172.606 49.6311 172.6 49.6427 172.6 49.6669V49.6884L172.591 49.7079L170.428 54.5331C170.243 55.4183 169.361 55.9335 168.5 55.9335H168.333C167.275 55.9333 166.582 55.0566 166.405 54.1981L163.072 44.1981L163.069 44.1913C162.899 43.511 162.899 42.9095 163.05 42.369C163.201 41.8286 163.503 41.3559 163.93 40.9296ZM166.318 42.7665C166.181 42.7667 166.069 42.7714 165.955 42.8593L165.904 42.9042C165.843 42.9653 165.806 43.0654 165.786 43.1835C165.768 43.2921 165.767 43.4019 165.767 43.4843L168.68 52.3856L170.241 48.7938L170.244 48.7889L170.381 48.5389C170.719 47.9762 171.189 47.5441 171.789 47.244L171.793 47.2411L175.384 45.6805L166.318 42.7665ZM159.229 45.8583C159.562 45.8584 159.884 45.9907 160.074 46.2665C160.576 46.7723 160.607 47.5894 160.165 48.1327L160.07 48.2372L158.237 50.0702C157.698 50.6092 156.802 50.6092 156.263 50.0702C155.724 49.5311 155.724 48.6346 156.263 48.0956L156.266 48.0927L158.266 46.2596C158.535 45.9922 158.893 45.8583 159.229 45.8583ZM157 40.2333C157.714 40.2333 158.434 40.7703 158.434 41.6669V41.6786L158.431 41.6913C158.344 42.0384 158.17 42.3874 157.928 42.6512C157.686 42.9153 157.369 43.0995 157 43.0995H154.333C153.62 43.0993 152.901 42.5632 152.9 41.6669C152.9 40.9534 153.437 40.2335 154.333 40.2333H157ZM157.396 33.0253C157.73 33.0253 158.053 33.1578 158.243 33.4354L160.07 35.2626C160.609 35.8016 160.609 36.6981 160.07 37.2372C159.531 37.7761 158.635 37.7762 158.096 37.2372L158.093 37.2343L156.426 35.4003V35.3993C155.891 34.8598 155.892 33.9673 156.43 33.4296C156.699 33.1603 157.058 33.0254 157.396 33.0253ZM171.201 33.1678C171.746 32.7257 172.565 32.7574 173.07 33.2626C173.609 33.8016 173.609 34.6981 173.07 35.2372L173.067 35.2401L171.067 37.0731C170.802 37.3372 170.487 37.4744 170.167 37.4745C169.885 37.4745 169.608 37.3689 169.364 37.1639L169.263 37.0702C168.724 36.5311 168.724 35.6346 169.263 35.0956L171.096 33.2626L171.201 33.1678ZM164.833 29.9003C165.28 29.9003 165.603 30.0803 165.81 30.3563C166.014 30.6283 166.1 30.9849 166.1 31.3329V33.9999C166.1 34.7133 165.563 35.4333 164.667 35.4335C164.22 35.4335 163.897 35.2525 163.69 34.9764C163.486 34.7044 163.4 34.3479 163.4 33.9999V31.3329C163.401 30.6195 163.937 29.9004 164.833 29.9003Z" stroke="#631425" stroke-width="0.2"/>
</g>
<defs>
<filter id="filter0_dd_63_6042" x="0.4" y="0.4" width="178.2" height="55.2" filterUnits="userSpaceOnUse" color-interpolation-filters="sRGB">
<feFlood flood-opacity="0" result="BackgroundImageFix"/>
<feColorMatrix in="SourceAlpha" type="matrix" values="0 0 0 0 0 0 0 0 0 0 0 0 0 0 0 0 0 0 127 0" result="hardAlpha"/>
<feOffset dy="2"/>
<feComposite in2="hardAlpha" operator="out"/>
<feColorMatrix type="matrix" values="0 0 0 0 0.389423 0 0 0 0 0.0786335 0 0 0 0 0.145971 0 0 0 1 0"/>
<feBlend mode="normal" in2="BackgroundImageFix" result="effect1_dropShadow_63_6042"/>
<feColorMatrix in="SourceAlpha" type="matrix" values="0 0 0 0 0 0 0 0 0 0 0 0 0 0 0 0 0 0 127 0" result="hardAlpha"/>
<feOffset/>
<feGaussianBlur stdDeviation="3.3"/>
<feComposite in2="hardAlpha" operator="out"/>
<feColorMatrix type="matrix" values="0 0 0 0 0.92549 0 0 0 0 0.505882 0 0 0 0 0.305882 0 0 0 0.65 0"/>
<feBlend mode="normal" in2="effect1_dropShadow_63_6042" result="effect2_dropShadow_63_6042"/>
<feBlend mode="normal" in="SourceGraphic" in2="effect2_dropShadow_63_6042" result="shape"/>
</filter>
<filter id="filter1_d_63_6042" x="145.001" y="21.9999" width="41.6918" height="41.8334" filterUnits="userSpaceOnUse" color-interpolation-filters="sRGB">
<feFlood flood-opacity="0" result="BackgroundImageFix"/>
<feColorMatrix in="SourceAlpha" type="matrix" values="0 0 0 0 0 0 0 0 0 0 0 0 0 0 0 0 0 0 127 0" result="hardAlpha"/>
<feOffset/>
<feGaussianBlur stdDeviation="3.9"/>
<feComposite in2="hardAlpha" operator="out"/>
<feColorMatrix type="matrix" values="0 0 0 0 0.913725 0 0 0 0 0.470588 0 0 0 0 0.305882 0 0 0 1 0"/>
<feBlend mode="normal" in2="BackgroundImageFix" result="effect1_dropShadow_63_6042"/>
<feBlend mode="normal" in="SourceGraphic" in2="effect1_dropShadow_63_6042" result="shape"/>
</filter>
<linearGradient id="paint0_linear_63_6042" x1="-13.1094" y1="28" x2="210.156" y2="28" gradientUnits="userSpaceOnUse">
<stop stop-color="#F29D4E"/>
<stop offset="0.427885" stop-color="#E0524E"/>
<stop offset="1" stop-color="#AF407A"/>
</linearGradient>
</defs>
</svg>
