<svg width="25" height="24" viewBox="0 0 25 24" fill="none" xmlns="http://www.w3.org/2000/svg">
<path fill-rule="evenodd" clip-rule="evenodd" d="M10.334 3.905C10.334 2.85272 11.1867 2 12.239 2H12.334C13.1296 2 13.8927 2.31607 14.4553 2.87868C15.0179 3.44129 15.334 4.20435 15.334 5V9H19.098C19.6093 9.00002 20.1121 9.13072 20.5587 9.37968C21.0053 9.62865 21.3809 9.98763 21.6497 10.4225C21.9186 10.8575 22.0718 11.3539 22.0949 11.8646C22.1179 12.3754 22.0101 12.8836 21.7815 13.341L18.2815 20.341C18.2815 20.3411 18.2816 20.3409 18.2815 20.341C18.0323 20.8396 17.649 21.2591 17.1748 21.5521C16.7007 21.8451 16.1543 22.0002 15.597 22C15.5968 22 15.5971 22 15.597 22H11.58C11.3358 22 11.0913 21.9701 10.8525 21.9102C10.8525 21.9102 10.8525 21.9102 10.8525 21.9102C10.852 21.91 10.8515 21.9099 10.851 21.9098L7.21091 21H5.33398C4.53833 21 3.77527 20.6839 3.21266 20.1213C2.65005 19.5587 2.33398 18.7957 2.33398 18V12C2.33398 11.2044 2.65005 10.4413 3.21266 9.87868C3.77527 9.31607 4.53833 9 5.33398 9H7.46528L9.89458 5.35533C10.1813 4.92636 10.334 4.42185 10.334 3.905ZM6.33398 11H5.33398C5.06877 11 4.81441 11.1054 4.62688 11.2929C4.43934 11.4804 4.33398 11.7348 4.33398 12V18C4.33398 18.2652 4.43934 18.5196 4.62688 18.7071C4.81441 18.8946 5.06877 19 5.33398 19H6.33398V11ZM8.33398 19.2192V11.3027L11.5574 6.46667C11.5572 6.46692 11.5576 6.46642 11.5574 6.46667C12.0467 5.73421 12.315 4.87771 12.333 4C12.5982 4 12.8536 4.10536 13.0411 4.29289C13.2286 4.48043 13.334 4.73478 13.334 5V9H12.334C11.7817 9 11.334 9.44772 11.334 10C11.334 10.5523 11.7817 11 12.334 11H19.0979C19.0979 11 19.098 11 19.0979 11C19.2684 11 19.436 11.0436 19.5849 11.1266C19.7337 11.2096 19.8589 11.3292 19.9485 11.4742C20.0381 11.6192 20.0892 11.7846 20.0969 11.9549C20.1046 12.1251 20.0687 12.2944 19.9926 12.4468C19.9925 12.4469 19.9926 12.4467 19.9926 12.4468L16.4926 19.4468C16.4095 19.613 16.2816 19.753 16.1236 19.8507C15.9655 19.9484 15.7833 20.0001 15.5975 20H11.58C11.4987 20 11.4177 19.99 11.339 19.9702L8.33398 19.2192Z" fill="#7C7C7C"/>
</svg>
