<svg width="25" height="24" viewBox="0 0 25 24" fill="none" xmlns="http://www.w3.org/2000/svg">
<path fill-rule="evenodd" clip-rule="evenodd" d="M11.265 2.27137C11.8384 1.10958 13.495 1.10958 14.0684 2.27137L16.6408 7.48353L22.3927 8.31934C23.6748 8.50565 24.1868 10.0812 23.259 10.9856L19.0969 15.0427L20.0794 20.7714C20.2984 22.0483 18.9582 23.0221 17.8114 22.4192L12.6667 19.7145L7.52198 22.4192C6.37522 23.0221 5.03494 22.0483 5.25395 20.7714L6.2365 15.0427L2.07434 10.9856C1.1466 10.0812 1.65854 8.50565 2.94065 8.31934L8.69262 7.48353L11.265 2.27137ZM12.6667 3.95028L10.3844 8.57462C10.1568 9.03597 9.71663 9.35574 9.2075 9.42972L4.10424 10.1713L7.797 13.7708C8.1654 14.1299 8.33352 14.6473 8.24655 15.1544L7.3748 20.237L11.9393 17.8373C12.3947 17.5979 12.9387 17.5979 13.3941 17.8373L17.9586 20.237L17.0868 15.1544C16.9999 14.6473 17.168 14.1299 17.5364 13.7708L21.2292 10.1713L16.1259 9.42972C15.6168 9.35574 15.1766 9.03597 14.9489 8.57462L12.6667 3.95028Z" fill="#7C7C7C"/>
</svg>
