<svg width="20" height="20" viewBox="0 0 20 20" fill="none" xmlns="http://www.w3.org/2000/svg">
<path d="M14.8656 2.78757C14.7274 2.95212 14.5544 3.17373 14.3677 3.44941C14.2765 3.58412 14.0258 3.58992 13.9243 3.45949C12.7863 1.99718 11.4237 0 9.95913 0C7.62576 0 5.55105 3.59255 4.23137 6.38255C4.05243 6.76086 3.33862 6.75871 3.17443 6.37659C3.17192 6.37078 3.16945 6.36494 3.16702 6.3591C3.09698 6.19176 2.77921 6.19988 2.71901 6.36937C2.17352 7.90525 1.23682 11.6802 3.84121 14.5753C5.118 16.1182 7.37988 17.1446 9.95913 17.1446C12.0145 17.1446 13.8677 16.4922 15.1825 15.4469C15.7763 14.9043 17.9021 13.3808 17.9021 10.0696C17.9021 5.7942 15.3947 4.63757 15.1887 2.84627C15.1742 2.71957 14.9556 2.68027 14.8656 2.78757Z" fill="url(#paint0_radial_38_3359)"/>
<path d="M16.6289 1.96525C16.6152 1.98729 16.5981 2.01697 16.5796 2.05391C16.5706 2.07195 16.5458 2.07274 16.5358 2.05525C16.4233 1.85933 16.2886 1.5918 16.1438 1.5918C15.9132 1.5918 15.6868 2.06074 15.5776 2.44686C15.3025 3.42003 15.8889 3.88866 16.1438 3.88866C16.347 3.88866 16.5302 3.80125 16.6601 3.66121C16.7189 3.5885 16.929 3.38442 16.929 2.94082C16.929 2.36803 16.6811 2.21309 16.6607 1.97309C16.6593 1.95615 16.6378 1.95089 16.6289 1.96525Z" fill="url(#paint1_radial_38_3359)"/>
<path d="M10.221 20.0004C9.94215 20.0004 9.6629 19.9344 9.41337 19.8095C8.65925 19.4321 7.18666 18.6228 5.79753 17.4431C3.99043 15.9084 2.91929 14.2611 2.61392 12.5469C2.3767 11.2153 2.71537 9.856 3.54309 8.81741C4.30968 7.85557 5.39596 7.29349 6.6018 7.23471C6.6727 7.23126 6.74454 7.22949 6.81529 7.22949C7.94509 7.22949 9.0116 7.6649 9.81847 8.45553C9.96419 8.59836 10.0986 8.74988 10.221 8.90894C10.3434 8.74988 10.4778 8.59832 10.6235 8.45549C11.4303 7.6649 12.4969 7.22953 13.6267 7.22953C13.6975 7.22953 13.7693 7.2313 13.8402 7.23475C15.0461 7.29353 16.1324 7.85561 16.899 8.81749C17.7267 9.85604 18.0653 11.2154 17.8281 12.547C17.5227 14.2611 16.4516 15.9084 14.6445 17.4431C13.2554 18.6228 11.7828 19.4321 11.0287 19.8095C10.7791 19.9344 10.4998 20.0004 10.221 20.0004Z" fill="url(#paint2_linear_38_3359)"/>
<path d="M10.221 19.0592C10.0213 19.0592 9.82125 19.0136 9.64246 18.9272C8.94352 18.5896 7.57905 17.866 6.29427 16.8129C4.6554 15.4696 3.68638 14.0406 3.41407 12.5655C3.21007 11.4604 3.50058 10.3331 4.21097 9.47278C4.86226 8.68411 5.78391 8.22329 6.80615 8.17521C6.86662 8.17235 6.92795 8.1709 6.9883 8.1709C7.95007 8.1709 8.85795 8.52862 9.54478 9.17819C9.66815 9.29486 9.78356 9.42035 9.88791 9.55121L10.2209 9.96882L10.5539 9.55125C10.6584 9.42023 10.7739 9.2947 10.8971 9.17811C11.5839 8.52862 12.4918 8.1709 13.4536 8.1709C13.514 8.1709 13.5753 8.17235 13.6358 8.17521C14.6581 8.22329 15.5797 8.68415 16.231 9.47286C16.9414 10.3332 17.2319 11.4604 17.0278 12.5655C16.7556 14.0406 15.7865 15.4696 14.1477 16.8129C12.8628 17.8661 11.4984 18.5896 10.7995 18.9272C10.6207 19.0136 10.4207 19.0592 10.221 19.0592Z" fill="url(#paint3_linear_38_3359)"/>
<path d="M16.8989 8.81784C16.6116 8.45729 16.2793 8.15294 15.9127 7.91016C16.582 8.90416 16.8415 10.1362 16.6261 11.3454C16.3207 13.0595 15.2496 14.7068 13.4425 16.2415C12.0534 17.4212 10.5808 18.2305 9.82667 18.6079C9.57714 18.7328 9.29784 18.7988 9.01906 18.7988C8.74028 18.7988 8.46098 18.7328 8.21145 18.6079C7.45734 18.2305 5.98475 17.4212 4.59561 16.2415C4.53608 16.1909 4.47749 16.1403 4.41957 16.0895C4.81741 16.5494 5.27671 17.0011 5.79753 17.4434C7.18667 18.6232 8.6593 19.4325 9.41337 19.8098C9.6629 19.9347 9.9422 20.0007 10.221 20.0007C10.4998 20.0007 10.7791 19.9347 11.0286 19.8098C11.7828 19.4324 13.2553 18.6231 14.6444 17.4434C16.4515 15.9087 17.5227 14.2614 17.828 12.5473C18.0653 11.2158 17.7267 9.85639 16.8989 8.81784Z" fill="url(#paint4_linear_38_3359)"/>
<path d="M13.8401 7.23471C13.7692 7.23126 13.6974 7.22949 13.6267 7.22949C12.4968 7.22949 11.4302 7.66486 10.6234 8.45545C10.4777 8.59828 10.3434 8.74981 10.2209 8.90886V20.0004C10.4997 20.0004 10.779 19.9344 11.0285 19.8095C11.7827 19.432 13.2553 18.6227 14.6444 17.4431C16.4515 15.9084 17.5226 14.2611 17.828 12.5469C18.0652 11.2154 17.7266 9.856 16.8989 8.81745C16.1323 7.85553 15.046 7.29345 13.8401 7.23471Z" fill="url(#paint5_linear_38_3359)"/>
<path d="M17.9022 10.0696C17.9022 5.7942 15.3948 4.63757 15.1888 2.84627C15.1742 2.71957 14.9557 2.68024 14.8656 2.78757C14.7275 2.95212 14.5544 3.17373 14.3678 3.44941C14.2766 3.58412 14.0259 3.58992 13.9244 3.45949C12.7863 1.99718 11.4238 0 9.95919 0C7.62582 0 5.55111 3.59255 4.23143 6.38255C4.05249 6.76086 3.33868 6.75871 3.17449 6.37659C3.17198 6.37078 3.16951 6.36494 3.16707 6.3591C3.09703 6.19176 2.77927 6.19988 2.71907 6.36941C2.28727 7.58533 1.61064 10.2045 2.63954 12.6795C2.97562 14.3459 4.03727 15.9478 5.79758 17.4427C7.18672 18.6225 8.65935 19.4318 9.41343 19.8091C9.66296 19.934 9.94225 20 10.221 20C10.4999 20 10.7791 19.934 11.0286 19.8091C11.7828 19.4317 13.2554 18.6224 14.6445 17.4427C16.4516 15.908 17.5227 14.2607 17.8281 12.5466C17.9215 12.0224 17.9252 11.4939 17.8454 10.9823C17.882 10.6943 17.9022 10.3905 17.9022 10.0696Z" fill="url(#paint6_linear_38_3359)"/>
<path d="M14.6245 11.2584C14.6245 13.5169 12.5563 15.3477 10.005 15.3477C7.45365 15.3477 5.38545 13.5169 5.38545 11.2584C5.38545 8.99989 7.45369 3.25781 10.005 3.25781C12.5564 3.25781 14.6245 8.99989 14.6245 11.2584Z" fill="url(#paint7_linear_38_3359)"/>
<path d="M13.3605 12.3777C13.3605 14.0181 11.8582 15.348 10.005 15.348C8.15184 15.348 6.64957 14.0181 6.64957 12.3777C6.64957 10.7372 8.15184 6.56641 10.005 6.56641C11.8582 6.56641 13.3605 10.7372 13.3605 12.3777Z" fill="url(#paint8_linear_38_3359)"/>
<path d="M4.22486 5.68051C4.22486 6.00521 4.00223 6.26843 3.7276 6.26843C3.45297 6.26843 3.23035 6.00521 3.23035 5.68051C3.23035 5.3558 3.45297 4.53027 3.7276 4.53027C4.00223 4.53027 4.22486 5.3558 4.22486 5.68051Z" fill="url(#paint9_radial_38_3359)"/>
<path d="M15.2713 1.89968C15.5 1.89968 15.6855 1.71424 15.6855 1.48549C15.6855 1.25673 15.5 1.07129 15.2713 1.07129C15.0425 1.07129 14.8571 1.25673 14.8571 1.48549C14.8571 1.71424 15.0425 1.89968 15.2713 1.89968Z" fill="url(#paint10_radial_38_3359)"/>
<defs>
<radialGradient id="paint0_radial_38_3359" cx="0" cy="0" r="1" gradientUnits="userSpaceOnUse" gradientTransform="translate(6.57091 6.53053) scale(12.3904 9.38985)">
<stop stop-color="#FFD945"/>
<stop offset="0.4169" stop-color="#FFD744"/>
<stop offset="0.6278" stop-color="#FFCF3F"/>
<stop offset="0.7926" stop-color="#FFC237"/>
<stop offset="0.9326" stop-color="#FFAF2C"/>
<stop offset="1" stop-color="#FFA325"/>
</radialGradient>
<radialGradient id="paint1_radial_38_3359" cx="0" cy="0" r="1" gradientUnits="userSpaceOnUse" gradientTransform="translate(15.9591 2.45613) scale(1.18543 1.21583)">
<stop stop-color="#FFD945"/>
<stop offset="0.4169" stop-color="#FFD744"/>
<stop offset="0.6278" stop-color="#FFCF3F"/>
<stop offset="0.7926" stop-color="#FFC237"/>
<stop offset="0.9326" stop-color="#FFAF2C"/>
<stop offset="1" stop-color="#FFA325"/>
</radialGradient>
<linearGradient id="paint2_linear_38_3359" x1="8.9538" y1="10.3301" x2="14.3237" y2="17.0349" gradientUnits="userSpaceOnUse">
<stop stop-color="#FF7044"/>
<stop offset="1" stop-color="#F82814"/>
</linearGradient>
<linearGradient id="paint3_linear_38_3359" x1="11.8398" y1="15.6866" x2="0.302185" y2="-11.1998" gradientUnits="userSpaceOnUse">
<stop stop-color="white" stop-opacity="0"/>
<stop offset="1" stop-color="white"/>
</linearGradient>
<linearGradient id="paint4_linear_38_3359" x1="12.0378" y1="15.252" x2="14.2614" y2="20.0044" gradientUnits="userSpaceOnUse">
<stop stop-color="#F82814" stop-opacity="0"/>
<stop offset="1" stop-color="#C0272D"/>
</linearGradient>
<linearGradient id="paint5_linear_38_3359" x1="11.4912" y1="12.2827" x2="4.42309" y2="5.076" gradientUnits="userSpaceOnUse">
<stop stop-color="#F82814" stop-opacity="0"/>
<stop offset="1" stop-color="#C0272D"/>
</linearGradient>
<linearGradient id="paint6_linear_38_3359" x1="10.0458" y1="9.92569" x2="16.2806" y2="13.8933" gradientUnits="userSpaceOnUse">
<stop stop-color="#F35227" stop-opacity="0"/>
<stop offset="1" stop-color="#F35227"/>
</linearGradient>
<linearGradient id="paint7_linear_38_3359" x1="10.8778" y1="11.492" x2="5.57067" y2="3.95777" gradientUnits="userSpaceOnUse">
<stop stop-color="#FFD945" stop-opacity="0"/>
<stop offset="1" stop-color="#FBED21"/>
</linearGradient>
<linearGradient id="paint8_linear_38_3359" x1="6.82859" y1="9.78797" x2="13.7902" y2="12.5565" gradientUnits="userSpaceOnUse">
<stop stop-color="#F35227" stop-opacity="0"/>
<stop offset="1" stop-color="#F35227"/>
</linearGradient>
<radialGradient id="paint9_radial_38_3359" cx="0" cy="0" r="1" gradientUnits="userSpaceOnUse" gradientTransform="translate(3.24454 5.20788) scale(1.45569 1.12233)">
<stop stop-color="#FFD945"/>
<stop offset="0.4169" stop-color="#FFD744"/>
<stop offset="0.6278" stop-color="#FFCF3F"/>
<stop offset="0.7926" stop-color="#FFC237"/>
<stop offset="0.9326" stop-color="#FFAF2C"/>
<stop offset="1" stop-color="#FFA325"/>
</radialGradient>
<radialGradient id="paint10_radial_38_3359" cx="0" cy="0" r="1" gradientUnits="userSpaceOnUse" gradientTransform="translate(15.0915 1.3869) scale(0.539765)">
<stop stop-color="#FFD945"/>
<stop offset="0.4169" stop-color="#FFD744"/>
<stop offset="0.6278" stop-color="#FFCF3F"/>
<stop offset="0.7926" stop-color="#FFC237"/>
<stop offset="0.9326" stop-color="#FFAF2C"/>
<stop offset="1" stop-color="#FFA325"/>
</radialGradient>
</defs>
</svg>
